<svg width="304" height="198" viewBox="0 0 304 198" fill="none" xmlns="http://www.w3.org/2000/svg">
    <g clip-path="url(#clip0_104_402)">
        <mask id="mask0_104_402" style="mask-type:alpha" maskUnits="userSpaceOnUse" x="107" y="40" width="193" height="146">
            <rect x="102.646" y="91.8508" width="177.535" height="103.703" rx="18.1093" transform="rotate(-18.4199 102.646 91.8508)" fill="white" />
        </mask>
        <g mask="url(#mask0_104_402)">
            <g filter="url(#filter0_f_104_402)">
                <path d="M241.806 18.6406L225.899 -1.84733L194.955 8.45835C108.129 34.7888 90.2763 43.3206 90.2763 43.3206C108.126 96.9172 108.472 205.92 161.025 188.417C218.663 169.221 117.902 89.9817 241.806 18.6406Z" fill="#ADBEFF" />
            </g>
            <g filter="url(#filter1_f_104_402)">
                <path d="M300.117 73.9273L289.737 67.7917L261.337 77.2499C182.075 102.686 165.267 109.245 165.267 109.245C171.908 129.184 154.372 175.617 202.603 159.554C255.502 141.937 181.482 124.627 300.117 73.9273Z" fill="#9C2CF3" />
            </g>
            <g filter="url(#filter2_f_104_402)">
                <path d="M295.79 135.492L274.925 125.078L214.733 159.396C133.538 106.092 133.24 189.628 133.24 189.628C151.088 243.219 183.759 204.819 230.853 189.135C282.505 171.933 321.32 212.149 295.79 135.492Z" fill="#00E3E9" />
            </g>
            <g filter="url(#filter3_f_104_402)">
                <path d="M96.9442 40.7281L148.183 23.6634C178.559 13.5469 238.552 -6.43325 238.552 -6.43325C263.883 69.6243 226.221 32.2187 185.194 45.8823C140.197 60.8682 146.888 190.69 96.9442 40.7281Z" fill="#FF7337" />
            </g>
            <mask id="mask1_104_402" style="mask-type:alpha" maskUnits="userSpaceOnUse" x="193" y="6" width="248" height="252">
                <rect x="445.462" y="170.989" width="183.482" height="195.922" rx="14.6537" transform="rotate(150 445.462 170.989)" fill="white" />
            </mask>
            <g mask="url(#mask1_104_402)">
                <path opacity="0.0689655" fill-rule="evenodd" clip-rule="evenodd" d="M400.096 94.2834C378.677 89.6421 383.732 125.633 370.755 136.954C358.608 147.55 332.206 140.598 327.236 157.842C322.235 175.189 335.137 201.042 345.785 223.575C355.949 245.083 367.36 270.094 386.745 283.768C406.058 297.391 423.786 290.756 441.848 291.336C453.659 291.715 462.813 287.728 473.967 286.57C486.409 285.278 505.189 294.132 511.167 284.138C517.111 274.2 504.144 254.442 502.068 239.589C499.856 223.768 507.365 210.609 498.594 194.199C489.703 177.566 470.817 169.481 457.222 155.691C437.253 135.434 422.158 99.0639 400.096 94.2834Z" stroke="url(#paint0_linear_104_402)" stroke-width="0.563602" stroke-linecap="round" stroke-dasharray="112.72 5.64" />
                <path opacity="0.103448" fill-rule="evenodd" clip-rule="evenodd" d="M399.507 90.2599C377.166 85.4237 382.406 122.855 368.856 134.623C356.174 145.637 328.638 138.396 323.436 156.326C318.203 174.364 331.638 201.256 342.725 224.695C353.308 247.066 365.189 273.083 385.398 287.312C405.533 301.488 424.034 294.595 442.876 295.206C455.198 295.606 464.752 291.463 476.388 290.263C489.37 288.925 508.953 298.142 515.199 287.75C521.409 277.418 507.901 256.865 505.749 241.417C503.456 224.963 511.302 211.282 502.167 194.212C492.908 176.91 473.213 168.494 459.044 154.146C438.231 133.071 422.517 95.2411 399.507 90.2599Z" stroke="url(#paint1_linear_104_402)" stroke-width="0.563602" stroke-linecap="round" stroke-dasharray="112.72 5.64" />
                <path opacity="0.137931" fill-rule="evenodd" clip-rule="evenodd" d="M398.916 86.2364C375.654 81.2054 381.078 120.078 366.957 132.292C353.739 143.725 325.069 136.194 319.636 154.811C314.17 173.54 328.138 201.471 339.664 225.815C350.666 249.051 363.016 276.071 384.051 290.855C405.008 305.584 424.282 298.434 443.903 299.076C456.736 299.496 466.689 295.198 478.809 293.957C492.329 292.573 512.716 302.151 519.23 291.363C525.706 280.636 511.656 259.288 509.428 243.245C507.055 226.159 515.239 211.954 505.74 194.225C496.112 176.254 475.609 167.507 460.865 152.602C439.207 130.708 422.876 91.4183 398.916 86.2364Z" stroke="url(#paint2_linear_104_402)" stroke-width="0.563602" stroke-linecap="round" stroke-dasharray="112.72 5.64" />
                <path opacity="0.172414" fill-rule="evenodd" clip-rule="evenodd" d="M398.326 82.2126C374.142 76.9867 379.75 117.3 365.058 129.961C351.305 141.812 321.5 133.991 315.836 153.296C310.137 172.716 324.638 201.686 336.603 226.934C348.024 251.034 360.844 279.06 382.704 294.398C404.482 309.68 424.529 302.273 444.931 302.946C458.273 303.386 468.626 298.933 481.229 297.65C495.289 296.22 516.479 306.161 523.26 294.975C530.003 283.854 515.412 261.71 513.108 245.073C510.655 227.353 519.175 212.626 509.312 194.237C499.316 175.598 478.004 166.519 462.686 151.057C440.184 128.345 423.235 87.5952 398.326 82.2126Z" stroke="url(#paint3_linear_104_402)" stroke-width="0.563602" stroke-linecap="round" stroke-dasharray="112.72 5.64" />
                <path opacity="0.206897" fill-rule="evenodd" clip-rule="evenodd" d="M397.735 78.1886C372.63 72.7679 378.423 114.521 363.158 127.629C348.871 139.898 317.931 131.788 312.035 151.78C306.104 171.891 321.138 201.9 333.543 228.054C345.382 253.018 358.671 282.048 381.356 297.942C403.957 313.776 424.776 306.111 445.958 306.816C459.811 307.276 470.563 302.668 483.65 301.344C498.248 299.867 520.242 310.17 527.291 298.588C534.301 287.072 519.167 264.133 516.788 246.901C514.254 228.548 523.111 213.298 512.885 194.25C502.52 174.941 480.4 165.531 464.506 149.512C441.161 125.982 423.593 83.7719 397.735 78.1886Z" stroke="url(#paint4_linear_104_402)" stroke-width="0.563602" stroke-linecap="round" stroke-dasharray="112.72 5.64" />
                <path opacity="0.241379" fill-rule="evenodd" clip-rule="evenodd" d="M397.146 74.1657C371.119 68.5501 377.096 111.744 361.26 125.299C346.437 137.986 314.363 129.587 308.236 150.265C302.072 171.068 317.64 202.115 330.483 229.174C342.741 255.002 356.5 285.037 380.01 301.486C403.432 317.873 425.024 309.951 446.987 310.686C461.35 311.167 472.501 306.403 486.071 305.038C501.209 303.515 524.005 314.18 531.323 302.201C538.599 290.291 522.923 266.556 520.468 248.73C517.854 229.744 527.048 213.971 516.459 194.263C505.725 174.286 482.796 164.545 466.328 147.969C442.139 123.62 423.953 79.9497 397.146 74.1657Z" stroke="url(#paint5_linear_104_402)" stroke-width="0.563602" stroke-linecap="round" stroke-dasharray="112.72 5.64" />
                <path opacity="0.275862" fill-rule="evenodd" clip-rule="evenodd" d="M396.555 70.1416C369.607 64.3312 375.769 108.966 359.36 122.967C344.002 136.073 310.793 127.384 304.435 148.749C298.039 170.243 314.14 202.329 327.422 230.294C340.099 256.986 354.327 288.025 378.662 305.029C402.907 321.969 425.272 313.789 448.014 314.556C462.887 315.057 474.438 310.138 488.492 308.731C504.168 307.162 527.768 318.189 535.354 305.813C542.896 293.508 526.679 268.979 524.148 250.558C521.453 230.938 530.985 214.643 520.031 194.275C508.929 173.63 485.191 163.557 468.149 146.424C443.115 121.257 424.312 76.1263 396.555 70.1416Z" stroke="url(#paint6_linear_104_402)" stroke-width="0.563602" stroke-linecap="round" stroke-dasharray="112.72 5.64" />
                <path opacity="0.310345" fill-rule="evenodd" clip-rule="evenodd" d="M395.964 66.1187C368.095 60.1135 374.441 106.189 357.461 120.637C341.568 134.161 307.224 125.183 300.635 147.235C294.006 169.42 310.64 202.545 324.36 231.414C337.457 258.97 352.155 291.014 377.315 308.573C402.381 326.066 425.518 317.629 449.041 318.427C464.425 318.948 476.375 313.873 490.912 312.425C507.127 310.81 531.531 322.199 539.384 309.426C547.193 296.727 530.434 271.402 527.828 252.387C525.052 232.134 534.92 215.316 523.604 194.289C512.133 172.974 487.586 162.57 469.969 144.88C444.092 118.895 424.67 72.3041 395.964 66.1187Z" stroke="url(#paint7_linear_104_402)" stroke-width="0.563602" stroke-linecap="round" stroke-dasharray="112.72 5.64" />
                <path opacity="0.344828" fill-rule="evenodd" clip-rule="evenodd" d="M395.374 62.094C366.583 55.8939 373.113 103.41 355.562 118.305C339.133 132.247 303.655 122.979 296.834 145.718C289.973 168.594 307.14 202.758 321.3 232.533C334.815 260.953 349.982 294.002 375.967 312.115C401.856 330.161 425.766 321.467 450.069 322.295C465.962 322.838 478.312 317.607 493.332 316.118C510.087 314.456 535.294 326.207 543.415 313.038C551.49 299.944 534.189 273.824 531.507 254.214C528.651 233.328 538.857 215.988 527.176 194.3C515.337 172.317 489.982 161.582 471.79 143.334C445.068 116.531 425.029 68.4801 395.374 62.094Z" stroke="url(#paint8_linear_104_402)" stroke-width="0.563602" stroke-linecap="round" stroke-dasharray="112.72 5.64" />
                <path opacity="0.37931" fill-rule="evenodd" clip-rule="evenodd" d="M394.784 58.0723C365.071 51.6773 371.786 100.634 353.663 115.976C336.699 130.336 300.086 120.779 293.034 144.205C285.94 167.772 303.64 202.975 318.239 233.655C332.174 262.939 347.81 296.992 374.62 315.66C401.331 334.26 426.013 325.307 451.097 326.167C467.501 326.73 480.25 321.344 495.753 319.813C513.047 318.105 539.057 330.219 547.446 316.652C555.788 303.164 537.945 276.248 535.188 256.044C532.251 234.524 542.793 216.662 530.749 194.315C518.541 171.663 492.377 160.596 473.611 141.792C446.046 114.17 425.388 64.6591 394.784 58.0723Z" stroke="url(#paint9_linear_104_402)" stroke-width="0.563602" stroke-linecap="round" stroke-dasharray="112.72 5.64" />
                <path opacity="0.413793" fill-rule="evenodd" clip-rule="evenodd" d="M394.194 54.0473C363.559 47.4575 370.458 97.8548 351.763 113.643C334.265 128.421 296.517 118.575 289.234 142.688C281.907 166.946 300.141 203.188 315.178 234.773C329.532 264.921 345.638 299.979 373.273 319.203C400.805 338.355 426.261 329.145 452.124 330.036C469.038 330.619 482.187 325.078 498.173 323.505C516.006 321.751 542.82 334.227 551.477 320.264C560.085 306.381 541.701 278.67 538.867 257.871C535.85 235.718 546.73 217.333 534.322 194.326C521.745 171.006 494.773 159.608 475.432 140.246C447.022 111.806 425.747 60.8348 394.194 54.0473Z" stroke="url(#paint10_linear_104_402)" stroke-width="0.563602" stroke-linecap="round" stroke-dasharray="112.72 5.64" />
                <path opacity="0.448276" fill-rule="evenodd" clip-rule="evenodd" d="M393.603 50.0244C362.047 43.2396 369.131 95.0776 349.864 111.313C331.83 126.509 292.948 116.373 285.434 141.174C277.874 166.123 296.641 203.403 312.117 235.894C326.89 266.906 343.466 302.968 371.926 322.747C400.28 342.452 426.508 332.985 453.152 333.907C470.576 334.51 484.124 328.813 500.594 327.199C518.966 325.399 546.583 338.237 555.508 323.877C564.382 309.599 545.456 281.093 542.547 259.7C539.449 236.914 550.666 218.006 537.895 194.339C524.949 170.35 497.168 158.621 477.253 138.702C447.999 109.444 426.105 57.0126 393.603 50.0244Z" stroke="url(#paint11_linear_104_402)" stroke-width="0.563602" stroke-linecap="round" stroke-dasharray="112.72 5.64" />
                <path opacity="0.482759" fill-rule="evenodd" clip-rule="evenodd" d="M393.013 46.0011C360.536 39.0216 367.804 92.3001 347.965 108.982C329.396 124.596 289.379 114.172 281.634 139.659C273.842 165.299 293.141 203.618 309.057 237.014C324.249 268.89 341.294 305.957 370.579 326.29C399.755 346.548 426.756 336.824 454.179 337.777C472.114 338.4 486.062 332.549 503.015 330.893C521.926 329.047 550.346 342.247 559.539 327.49C568.68 312.818 549.212 283.516 546.227 261.528C543.048 238.109 554.603 218.679 541.468 194.352C528.154 169.695 499.564 157.634 479.074 137.158C448.976 107.082 426.465 53.19 393.013 46.0011Z" stroke="url(#paint12_linear_104_402)" stroke-width="0.563602" stroke-linecap="round" stroke-dasharray="112.72 5.64" />
                <path opacity="0.517241" fill-rule="evenodd" clip-rule="evenodd" d="M392.423 41.9774C359.024 34.8029 366.477 89.5221 346.066 106.651C326.962 122.683 285.81 111.969 277.834 138.143C269.809 164.475 289.642 203.833 305.997 238.134C321.607 270.874 339.122 308.945 369.232 329.834C399.23 350.644 427.003 340.663 455.207 341.647C473.652 342.29 488 336.283 505.436 334.587C524.886 332.694 554.11 346.256 563.571 331.102C572.977 316.036 552.968 285.939 549.908 263.356C546.648 239.304 558.539 219.351 545.041 194.365C531.358 169.038 501.96 156.646 480.895 135.614C449.954 104.719 426.824 49.367 392.423 41.9774Z" stroke="url(#paint13_linear_104_402)" stroke-width="0.563602" stroke-linecap="round" stroke-dasharray="112.72 5.64" />
                <path opacity="0.551724" fill-rule="evenodd" clip-rule="evenodd" d="M391.833 37.9538C357.513 30.5845 365.149 86.7443 344.167 104.32C324.528 120.771 282.241 109.767 274.033 136.628C265.776 163.65 286.142 204.048 302.936 239.253C318.965 272.858 336.95 311.934 367.884 333.377C398.704 354.741 427.25 344.501 456.235 345.517C475.19 346.181 489.937 340.018 507.856 338.28C527.845 336.342 557.873 350.265 567.602 334.715C577.275 319.254 556.723 288.361 553.587 265.184C550.247 240.499 562.476 220.023 548.613 194.377C534.562 168.382 504.355 155.659 482.716 134.069C450.93 102.356 427.182 45.5441 391.833 37.9538Z" stroke="url(#paint14_linear_104_402)" stroke-width="0.563602" stroke-linecap="round" stroke-dasharray="112.72 5.64" />
                <path opacity="0.586207" fill-rule="evenodd" clip-rule="evenodd" d="M391.242 33.9307C356.001 26.3666 363.822 83.967 342.268 101.989C322.093 118.858 278.672 107.565 270.233 135.113C261.743 162.827 282.642 204.263 299.875 240.374C316.323 274.842 334.777 314.923 366.537 336.921C398.179 358.838 427.498 348.341 457.262 349.387C476.728 350.072 491.874 343.754 510.277 341.974C530.805 339.989 561.636 354.275 571.632 338.328C581.572 322.472 560.479 290.785 557.267 267.013C553.846 241.694 566.412 220.696 552.186 194.391C537.767 167.727 506.751 154.672 484.537 132.525C451.907 99.9937 427.541 41.7217 391.242 33.9307Z" stroke="url(#paint15_linear_104_402)" stroke-width="0.563602" stroke-linecap="round" stroke-dasharray="112.72 5.64" />
                <path opacity="0.62069" fill-rule="evenodd" clip-rule="evenodd" d="M390.653 29.9065C354.489 22.1475 362.495 81.1886 340.369 99.6576C319.66 116.945 275.104 105.362 266.433 133.597C257.711 162.002 279.143 204.477 296.815 241.493C313.682 276.826 332.606 317.911 365.191 340.464C397.654 362.933 427.746 352.179 458.291 353.257C478.266 353.961 493.812 347.488 512.698 345.667C533.765 343.636 565.399 358.284 575.664 341.94C585.87 325.69 564.235 293.207 560.948 268.841C557.446 242.889 570.349 221.368 555.76 194.403C540.971 167.07 509.147 153.684 486.358 130.98C452.885 97.6303 427.901 37.8982 390.653 29.9065Z" stroke="url(#paint16_linear_104_402)" stroke-width="0.563602" stroke-linecap="round" stroke-dasharray="112.72 5.64" />
                <path opacity="0.655172" fill-rule="evenodd" clip-rule="evenodd" d="M390.062 25.8833C352.977 17.9294 361.167 78.4111 338.47 97.3269C317.225 115.032 271.534 103.16 262.633 132.082C253.678 161.178 275.643 204.692 293.754 242.613C311.04 278.81 330.433 320.9 363.843 344.008C397.129 367.03 427.993 356.019 459.318 357.127C479.804 357.852 495.749 351.224 515.118 349.361C536.724 347.284 569.162 362.294 579.695 345.553C590.167 328.908 567.99 295.63 564.627 270.669C561.045 244.084 574.285 222.04 559.332 194.416C544.175 166.415 511.542 152.697 488.179 129.436C453.861 95.2679 428.259 34.0757 390.062 25.8833Z" stroke="url(#paint17_linear_104_402)" stroke-width="0.563602" stroke-linecap="round" stroke-dasharray="112.72 5.64" />
                <path opacity="0.689655" fill-rule="evenodd" clip-rule="evenodd" d="M389.471 21.8598C351.465 13.7111 359.839 75.6333 336.57 94.9959C314.79 113.119 267.965 100.958 258.832 130.567C249.645 160.354 272.143 204.907 290.693 243.733C308.398 280.794 328.26 323.888 362.495 347.551C396.603 371.127 428.24 359.858 460.345 360.997C481.341 361.743 497.686 354.959 517.538 353.055C539.684 350.931 572.925 366.304 583.725 349.166C594.464 332.126 571.745 298.053 568.307 272.498C564.644 245.279 578.221 222.713 562.904 194.429C547.379 165.759 513.937 151.71 489.999 127.892C454.838 92.9052 428.618 30.2529 389.471 21.8598Z" stroke="url(#paint18_linear_104_402)" stroke-width="0.563602" stroke-linecap="round" stroke-dasharray="112.72 5.64" />
                <path opacity="0.724138" fill-rule="evenodd" clip-rule="evenodd" d="M388.881 17.8362C349.953 9.49259 358.512 72.8555 334.671 92.6648C312.356 111.206 264.396 98.7557 255.032 129.052C245.612 159.53 268.644 205.121 287.632 244.853C305.756 282.778 326.088 326.877 361.148 351.095C396.078 375.223 428.487 363.696 461.372 364.867C482.879 365.633 499.623 358.694 519.959 356.748C542.643 354.579 576.688 370.313 587.756 352.778C598.761 335.344 575.501 300.476 571.987 274.326C568.244 246.474 582.157 223.385 566.477 194.441C550.583 165.103 516.332 150.723 491.82 126.347C455.814 90.5425 428.976 26.43 388.881 17.8362Z" stroke="url(#paint19_linear_104_402)" stroke-width="0.563602" stroke-linecap="round" stroke-dasharray="112.72 5.64" />
                <path opacity="0.758621" fill-rule="evenodd" clip-rule="evenodd" d="M388.291 13.8125C348.442 5.27404 357.185 70.0776 332.772 90.3337C309.922 109.293 260.827 96.5533 251.232 127.536C241.579 158.705 265.144 205.336 284.571 245.973C303.115 284.761 323.916 329.865 359.801 354.638C395.553 379.319 428.735 367.535 462.4 368.737C484.417 369.523 501.561 362.428 522.38 360.442C545.603 358.226 580.451 374.322 591.788 356.391C603.059 338.562 579.257 302.898 575.667 276.154C571.843 247.669 586.094 224.058 570.05 194.454C553.788 164.447 518.728 149.735 493.642 124.803C456.792 88.1796 429.336 22.607 388.291 13.8125Z" stroke="url(#paint20_linear_104_402)" stroke-width="0.563602" stroke-linecap="round" stroke-dasharray="112.72 5.64" />
                <path opacity="0.793103" fill-rule="evenodd" clip-rule="evenodd" d="M387.7 9.78847C346.929 1.05518 355.857 67.2993 330.872 88.0022C307.487 107.38 257.258 94.3507 247.431 126.021C237.546 157.881 261.644 205.55 281.51 247.092C300.472 286.745 321.743 332.853 358.453 358.181C395.027 383.415 428.982 371.374 463.427 372.607C485.954 373.413 503.498 366.163 524.8 364.135C548.562 361.873 584.214 378.331 595.818 360.003C607.356 341.78 583.012 305.321 579.346 277.982C575.442 248.864 590.03 224.729 573.622 194.466C556.992 163.79 521.123 148.747 495.462 123.258C457.768 85.8164 429.694 18.7837 387.7 9.78847Z" stroke="url(#paint21_linear_104_402)" stroke-width="0.563602" stroke-linecap="round" stroke-dasharray="112.72 5.64" />
                <path opacity="0.827586" fill-rule="evenodd" clip-rule="evenodd" d="M387.111 5.76521C345.418 -3.16294 354.53 64.5218 328.974 85.6715C305.053 105.468 253.69 92.1487 243.632 124.506C233.514 157.057 258.145 205.765 278.45 248.213C297.831 288.729 319.572 335.842 357.107 361.725C394.502 387.512 429.23 375.213 464.456 376.477C487.493 377.304 505.436 369.898 527.221 367.829C551.523 365.521 587.978 382.341 599.85 363.616C611.654 344.998 586.768 307.744 583.027 279.81C579.042 250.059 593.967 225.402 577.196 194.479C560.196 163.135 523.519 147.76 497.284 121.714C458.746 83.454 430.054 14.9611 387.111 5.76521Z" stroke="url(#paint22_linear_104_402)" stroke-width="0.563602" stroke-linecap="round" stroke-dasharray="112.72 5.64" />
                <path opacity="0.862069" fill-rule="evenodd" clip-rule="evenodd" d="M386.519 1.74098C343.906 -7.38203 353.202 61.7434 327.074 83.3398C302.618 103.554 250.12 89.9458 239.831 122.99C229.48 156.232 254.644 205.979 275.388 249.332C295.189 290.712 317.399 338.83 355.759 365.268C393.976 391.608 429.476 379.051 465.482 380.346C489.03 381.193 507.372 373.633 529.641 371.522C554.482 369.167 591.74 386.35 603.88 367.228C615.95 348.216 590.523 310.166 586.706 281.638C582.64 251.253 597.903 226.074 580.768 194.491C563.4 162.478 525.914 146.773 499.104 120.169C459.722 81.0907 430.411 11.1376 386.519 1.74098Z" stroke="url(#paint23_linear_104_402)" stroke-width="0.563602" stroke-linecap="round" stroke-dasharray="112.72 5.64" />
                <path opacity="0.896552" fill-rule="evenodd" clip-rule="evenodd" d="M385.93 -2.2821C342.394 -11.6 351.875 58.966 325.175 81.0092C300.184 101.642 246.551 87.744 236.031 121.475C225.448 155.408 251.145 206.194 272.328 250.452C292.547 292.697 315.227 341.819 354.412 368.812C393.451 395.704 429.724 382.891 466.511 384.217C490.568 385.084 509.31 377.368 532.062 375.216C557.442 372.815 595.503 390.36 607.911 370.841C620.248 351.434 594.279 312.589 590.386 283.467C586.24 252.449 601.84 226.747 584.341 194.504C566.605 161.823 528.31 145.786 500.925 118.625C460.699 78.7284 430.771 7.31523 385.93 -2.2821Z" stroke="url(#paint24_linear_104_402)" stroke-width="0.563602" stroke-linecap="round" stroke-dasharray="112.72 5.64" />
                <path opacity="0.931035" fill-rule="evenodd" clip-rule="evenodd" d="M385.34 -6.30596C340.883 -15.8187 350.548 56.1879 323.277 78.6779C297.751 99.7286 242.983 85.5415 232.232 119.959C221.416 154.584 247.647 206.409 269.268 251.572C289.906 294.68 313.056 344.807 353.066 372.355C392.927 399.801 429.972 386.729 467.539 388.087C492.107 388.974 511.248 381.103 534.483 378.909C560.402 376.462 599.267 394.369 611.943 374.454C624.546 354.652 598.035 315.012 594.067 285.295C589.84 253.643 605.777 227.419 587.915 194.517C569.81 161.166 530.706 144.798 502.747 117.08C461.677 76.3654 431.131 3.49206 385.34 -6.30596Z" stroke="url(#paint25_linear_104_402)" stroke-width="0.563602" stroke-linecap="round" stroke-dasharray="112.72 5.64" />
                <path opacity="0.965517" fill-rule="evenodd" clip-rule="evenodd" d="M384.749 -10.3286C339.37 -20.0362 349.22 53.4111 321.377 76.3478C295.316 97.8167 239.413 83.3402 228.43 118.445C217.382 153.761 244.146 206.624 266.207 252.693C287.264 296.665 310.882 347.796 351.717 375.899C392.401 403.898 430.219 390.569 468.566 391.958C493.644 392.866 513.185 384.839 536.903 382.604C563.361 380.111 603.029 398.38 615.973 378.067C628.843 357.871 601.79 317.435 597.746 287.124C593.439 254.839 609.712 228.092 591.487 194.53C573.013 160.511 533.101 143.812 504.567 115.537C462.653 74.0036 431.488 -0.32985 384.749 -10.3286Z" stroke="url(#paint26_linear_104_402)" stroke-width="0.563602" stroke-linecap="round" stroke-dasharray="112.72 5.64" />
                <path fill-rule="evenodd" clip-rule="evenodd" d="M384.159 -14.3526C337.859 -24.2551 347.893 50.6328 319.478 74.0163C292.882 95.9033 235.844 81.1374 224.63 116.929C213.349 152.936 240.647 206.839 263.146 253.812C284.622 298.649 308.711 350.785 350.371 379.442C391.876 407.994 430.466 394.408 469.594 395.827C495.182 396.755 515.122 388.573 539.324 386.297C566.321 383.758 606.793 402.389 620.004 381.679C633.14 361.089 605.546 319.858 601.426 288.951C597.038 256.034 613.649 228.764 595.06 194.543C576.217 159.855 535.497 142.824 506.388 113.992C463.63 71.6404 431.848 -4.15319 384.159 -14.3526Z" stroke="url(#paint27_linear_104_402)" stroke-width="0.563602" stroke-linecap="round" stroke-dasharray="112.72 5.64" />
            </g>
        </g>
        <g filter="url(#filter4_bi_104_402)">
            <rect x="242.669" y="58.0603" width="19.0324" height="15.226" rx="4.50882" transform="rotate(-18.4199 242.669 58.0603)" fill="white" fill-opacity="0.2" />
        </g>
        <path opacity="0.9" fill-rule="evenodd" clip-rule="evenodd" d="M255.097 59.0132L258.14 58.0021L258.254 58.3266L255.366 59.2886L256.107 61.5013L259.046 60.568L259.16 60.8924L256.216 61.8273L256.929 63.9545L259.888 62.9665L260.003 63.2909L256.88 64.3309C256.794 64.3582 256.697 64.3102 256.666 64.2179L256.515 63.7683L254.983 64.2548L255.442 65.6257C255.457 65.6696 255.454 65.7167 255.434 65.7563L255.074 66.4205L254.617 66.5715L255.101 65.6574L254.665 64.3558L253.133 64.8423L253.272 65.2636C253.303 65.3553 253.254 65.4491 253.168 65.4763L250.019 66.5098L249.911 66.1834L252.899 65.2009L252.198 63.1034L249.206 64.0535L249.098 63.727L252.089 62.7773L251.372 60.6255L248.394 61.5972L248.286 61.2707L251.421 60.2492C251.507 60.2218 251.605 60.2699 251.636 60.3621L251.79 60.8364L253.322 60.3499L252.863 58.979C252.848 58.935 252.852 58.888 252.871 58.8484L252.873 58.846L253.093 58.328L253.557 58.1748L253.205 58.9489L253.641 60.2488L255.173 59.7623L254.993 59.2259C254.962 59.1341 255.011 59.0404 255.097 59.0132ZM256.406 63.4422L255.282 60.0884L251.9 61.1624L253.024 64.5163L256.406 63.4422Z" fill="white" />
        <path fill-rule="evenodd" clip-rule="evenodd" d="M145.004 161.074C145.301 160.714 145.834 160.663 146.194 160.961L151.176 165.079C151.536 165.376 151.587 165.909 151.289 166.269C150.992 166.629 150.459 166.679 150.099 166.382L145.117 162.264C144.757 161.967 144.706 161.434 145.004 161.074Z" fill="white" />
        <path fill-rule="evenodd" clip-rule="evenodd" d="M152.969 155.155C152.659 155.504 152.691 156.039 153.04 156.349C154.459 157.607 155.521 159.217 156.12 161.016C156.719 162.815 156.834 164.74 156.454 166.598C156.36 167.055 156.655 167.502 157.112 167.596C157.57 167.689 158.016 167.394 158.11 166.937C158.55 164.789 158.417 162.562 157.724 160.482C157.031 158.401 155.803 156.539 154.163 155.084C153.813 154.774 153.279 154.806 152.969 155.155Z" fill="white" />
        <path fill-rule="evenodd" clip-rule="evenodd" d="M150.695 157.718C150.385 158.067 150.417 158.601 150.767 158.911C151.735 159.771 152.46 160.87 152.87 162.098C153.279 163.327 153.357 164.641 153.097 165.91C153.004 166.367 153.298 166.814 153.756 166.908C154.213 167.002 154.66 166.707 154.754 166.249C155.073 164.69 154.977 163.074 154.474 161.564C153.971 160.054 153.079 158.703 151.889 157.647C151.539 157.337 151.005 157.369 150.695 157.718Z" fill="white" />
        <path fill-rule="evenodd" clip-rule="evenodd" d="M148.227 159.984C147.917 160.334 147.949 160.868 148.298 161.178C148.907 161.718 149.363 162.409 149.62 163.181C149.877 163.953 149.926 164.779 149.763 165.576C149.669 166.034 149.964 166.48 150.421 166.574C150.879 166.668 151.325 166.373 151.419 165.916C151.642 164.828 151.575 163.7 151.224 162.647C150.873 161.593 150.251 160.65 149.42 159.913C149.071 159.603 148.537 159.635 148.227 159.984Z" fill="white" />
        <path fill-rule="evenodd" clip-rule="evenodd" d="M145.872 160.769C146.329 160.862 146.624 161.309 146.53 161.767C146.367 162.564 146.416 163.39 146.673 164.162C146.93 164.934 147.386 165.625 147.995 166.165C148.344 166.475 148.376 167.009 148.066 167.358C147.756 167.708 147.222 167.74 146.873 167.43C146.042 166.693 145.42 165.75 145.069 164.696C144.718 163.643 144.651 162.515 144.874 161.427C144.967 160.97 145.414 160.675 145.872 160.769Z" fill="white" />
        <mask id="mask2_104_402" style="mask-type:alpha" maskUnits="userSpaceOnUse" x="6" y="6" width="246" height="186">
            <rect y="71.8673" width="227.444" height="132.856" rx="23.2002" transform="rotate(-18.4199 0 71.8673)" fill="white" />
        </mask>
        <g mask="url(#mask2_104_402)">
            <g filter="url(#filter5_f_104_402)">
                <path d="M178.281 -21.9237L157.902 -48.1712L118.258 -34.9684C7.02403 -1.23587 -15.8471 9.69435 -15.8471 9.69435C7.02079 78.3581 7.46378 218.003 74.7903 195.581C148.632 170.989 19.5446 69.4729 178.281 -21.9237Z" fill="#ADBEFF" />
            </g>
            <g filter="url(#filter6_f_104_402)">
                <path d="M252.984 48.9053L239.686 41.0449L203.302 53.162C101.758 85.7481 80.2252 94.1518 80.2252 94.1518C88.7323 119.696 66.2674 179.183 128.057 158.604C195.827 136.034 100.998 113.857 252.984 48.9053Z" fill="#9C2CF3" />
            </g>
            <g filter="url(#filter7_f_104_402)">
                <path d="M247.441 127.777L220.71 114.436L143.597 158.401C39.5759 90.1125 39.1946 197.132 39.1946 197.132C62.0602 265.789 103.916 216.593 164.249 196.5C230.421 174.462 280.148 225.984 247.441 127.777Z" fill="#54CCEE" />
            </g>
            <g filter="url(#filter8_f_104_402)">
                <path d="M-7.30488 6.37313L58.3387 -15.4888C97.2541 -28.4493 174.112 -54.0463 174.112 -54.0463C206.563 43.3926 158.314 -4.52844 105.754 12.9763C48.1078 32.1749 56.6785 198.492 -7.30488 6.37313Z" fill="#00E3E9" />
            </g>
            <mask id="mask3_104_402" style="mask-type:alpha" maskUnits="userSpaceOnUse" x="-18" y="-49" width="293" height="303">
                <rect x="-22.8137" y="20.4534" width="235.063" height="251" rx="18.7731" transform="rotate(-18.4199 -22.8137 20.4534)" fill="white" />
            </mask>
            <g mask="url(#mask3_104_402)">
                <path opacity="0.0344828" fill-rule="evenodd" clip-rule="evenodd" d="M14.6897 123.188C39.2717 134.04 42.0439 89.425 60.4103 78.968C77.6013 69.1803 107.598 84.0402 117.804 64.4799C128.071 44.8021 118.93 10.4785 111.679 -19.2909C104.757 -47.706 97.1995 -80.6497 77.2798 -101.888C57.4342 -123.046 34.5136 -119.403 12.9662 -124.536C-1.12535 -127.893 -13.0982 -125.335 -26.7772 -126.677C-42.0364 -128.175 -62.4134 -143.456 -72.0483 -132.879C-81.6279 -122.362 -70.9109 -95.368 -72.0667 -76.9578C-73.2978 -57.3493 -85.5486 -43.3346 -79.0467 -21.4048C-72.4563 0.823706 -51.7632 15.2029 -38.8255 35.1599C-19.8214 64.4747 -10.6295 112.011 14.6897 123.188Z" stroke="url(#paint28_linear_104_402)" stroke-width="0.722043" stroke-linecap="round" stroke-dasharray="144.41 7.22" />
                <path opacity="0.0689655" fill-rule="evenodd" clip-rule="evenodd" d="M14.3963 128.389C40.0847 139.723 42.996 93.2522 62.1949 82.3816C80.1651 72.2067 111.512 87.7216 122.184 67.3585C132.921 46.8732 123.378 11.1086 115.809 -19.9097C108.584 -49.5169 100.695 -83.8422 79.8824 -105.989C59.1475 -128.053 35.1909 -124.285 12.6723 -129.658C-2.05441 -133.171 -14.5686 -130.521 -28.8647 -131.936C-44.8123 -133.514 -66.1046 -149.456 -76.1777 -138.45C-86.1932 -127.507 -75.0007 -99.3749 -76.2145 -80.1991C-77.5072 -59.7752 -90.3155 -45.1912 -83.5269 -22.34C-76.6459 0.822528 -55.0231 15.8256 -41.5075 36.6295C-21.6546 67.1883 -12.0625 116.716 14.3963 128.389Z" stroke="url(#paint29_linear_104_402)" stroke-width="0.722043" stroke-linecap="round" stroke-dasharray="144.41 7.22" />
                <path opacity="0.103448" fill-rule="evenodd" clip-rule="evenodd" d="M14.1017 133.591C40.8965 145.406 43.9469 97.0797 63.9782 85.7954C82.7276 75.2333 115.424 91.4032 126.563 70.2375C137.77 48.9447 127.825 11.7391 119.937 -20.5282C112.409 -51.3276 104.189 -87.0344 82.4838 -110.09C60.8594 -133.059 35.8669 -129.166 12.3771 -134.779C-2.98471 -138.449 -16.0402 -135.707 -30.9535 -137.194C-47.5896 -138.853 -69.797 -155.456 -80.3085 -144.021C-90.7596 -132.651 -79.0918 -103.381 -80.3635 -83.44C-81.7179 -62.2007 -95.0836 -47.0475 -88.0084 -23.2748C-80.8368 0.821674 -58.2842 16.4486 -44.1907 38.0994C-23.489 69.9023 -13.4967 121.422 14.1017 133.591Z" stroke="url(#paint30_linear_104_402)" stroke-width="0.722043" stroke-linecap="round" stroke-dasharray="144.41 7.22" />
                <path opacity="0.137931" fill-rule="evenodd" clip-rule="evenodd" d="M13.808 138.792C41.7092 151.089 44.8986 100.907 65.7624 89.2092C85.291 78.2599 119.337 95.0848 130.943 73.1163C142.62 51.016 132.272 12.3695 124.067 -21.1468C116.234 -53.1383 107.684 -90.2266 85.0861 -114.191C62.5723 -138.065 36.5439 -134.048 12.0828 -139.9C-3.91413 -143.728 -17.511 -140.893 -33.0414 -142.452C-50.3659 -144.192 -73.4886 -161.456 -84.4383 -149.592C-95.3253 -137.795 -83.182 -107.388 -84.5116 -86.6811C-85.9277 -64.6263 -99.8509 -48.9039 -92.489 -24.2098C-85.0267 0.820724 -61.5444 17.0715 -46.8731 39.5693C-25.3225 72.6163 -14.9301 126.127 13.808 138.792Z" stroke="url(#paint31_linear_104_402)" stroke-width="0.722043" stroke-linecap="round" stroke-dasharray="144.41 7.22" />
                <path opacity="0.172414" fill-rule="evenodd" clip-rule="evenodd" d="M13.5143 143.994C42.5219 156.772 45.8504 104.735 67.5467 92.6235C87.8544 81.287 123.25 98.7669 135.323 75.9957C147.469 53.0878 136.72 13.0004 128.196 -21.7648C120.06 -54.9485 111.179 -93.4184 87.6883 -118.291C64.2852 -143.071 37.2208 -138.93 11.7886 -145.021C-4.84354 -149.005 -18.9817 -146.078 -35.1293 -147.71C-53.1423 -149.53 -77.1801 -167.456 -88.5682 -155.162C-99.8909 -142.939 -87.2722 -111.394 -88.6597 -89.9217C-90.1375 -67.0514 -104.618 -50.7597 -96.9696 -25.1442C-89.2167 0.820268 -64.8046 17.6949 -49.5554 41.0396C-27.156 75.3307 -16.3634 130.833 13.5143 143.994Z" stroke="url(#paint32_linear_104_402)" stroke-width="0.722043" stroke-linecap="round" stroke-dasharray="144.41 7.22" />
                <path opacity="0.206897" fill-rule="evenodd" clip-rule="evenodd" d="M13.2204 149.196C43.3345 162.456 46.8021 108.563 69.3308 96.0381C90.4177 84.3143 127.163 102.449 139.703 78.8754C152.319 55.1599 141.168 13.6315 132.326 -22.3826C123.886 -56.7584 114.674 -96.6099 90.2905 -122.391C65.998 -148.076 37.8976 -143.811 11.4942 -150.142C-5.77307 -154.283 -20.4526 -151.264 -37.2174 -152.968C-55.9188 -154.868 -80.8718 -173.455 -92.6981 -160.732C-104.457 -148.082 -91.3625 -115.4 -92.808 -93.162C-94.3475 -69.4762 -109.386 -52.6154 -101.45 -26.0784C-93.4068 0.820075 -68.065 18.3185 -52.2379 42.5102C-28.9896 78.0454 -17.7969 135.539 13.2204 149.196Z" stroke="url(#paint33_linear_104_402)" stroke-width="0.722043" stroke-linecap="round" stroke-dasharray="144.41 7.22" />
                <path opacity="0.241379" fill-rule="evenodd" clip-rule="evenodd" d="M12.9253 154.397C44.1458 168.138 47.7525 112.39 71.1137 99.451C92.9798 87.3401 131.075 106.13 144.082 81.7534C157.167 57.2304 145.614 14.261 136.454 -23.0021C127.711 -58.57 118.167 -99.8031 92.8914 -126.493C67.7095 -153.084 38.5732 -148.693 11.1986 -155.265C-6.70382 -159.562 -21.9247 -156.451 -39.3066 -158.227C-58.6964 -160.208 -84.5647 -179.456 -96.8293 -166.304C-109.024 -153.227 -95.454 -119.408 -96.9574 -96.4039C-98.5586 -71.9027 -114.154 -54.4726 -105.932 -27.0142C-97.5981 0.818289 -71.3265 18.9406 -54.9216 43.9792C-30.8244 80.7584 -19.2315 140.244 12.9253 154.397Z" stroke="url(#paint34_linear_104_402)" stroke-width="0.722043" stroke-linecap="round" stroke-dasharray="144.41 7.22" />
                <path opacity="0.275862" fill-rule="evenodd" clip-rule="evenodd" d="M12.632 159.599C44.959 173.822 48.7047 116.218 72.8983 102.866C95.5436 90.3675 134.988 109.812 148.462 84.6331C162.017 59.3026 150.062 14.8922 140.584 -23.6198C131.537 -60.3799 121.663 -102.995 95.4941 -130.593C69.4229 -158.089 39.2506 -153.574 10.9048 -160.385C-7.63281 -164.839 -23.395 -161.636 -41.3941 -163.484C-61.4724 -165.546 -88.2558 -185.455 -100.959 -171.874C-113.589 -158.37 -99.5438 -123.414 -101.105 -99.6441C-102.768 -74.3274 -118.921 -56.3281 -110.412 -27.9482C-101.788 0.818192 -74.5863 19.5643 -57.6035 45.4499C-32.6575 83.4732 -20.6644 144.95 12.632 159.599Z" stroke="url(#paint35_linear_104_402)" stroke-width="0.722043" stroke-linecap="round" stroke-dasharray="144.41 7.22" />
                <path opacity="0.310345" fill-rule="evenodd" clip-rule="evenodd" d="M12.3387 164.8C45.772 179.504 49.6568 120.045 74.6829 106.279C98.1074 93.3935 138.901 113.493 152.842 87.5114C166.867 61.3733 154.51 15.522 144.714 -24.239C135.363 -62.1911 125.158 -106.187 98.0967 -134.695C71.1361 -163.096 39.9279 -158.457 10.6109 -165.507C-8.56186 -170.118 -24.8654 -166.822 -43.4816 -168.743C-64.2484 -170.886 -91.947 -191.456 -105.088 -177.445C-118.154 -163.515 -103.634 -127.421 -105.253 -102.886C-106.977 -76.7536 -123.688 -58.185 -114.893 -28.8838C-105.977 0.816659 -77.8461 20.1867 -60.2855 46.9192C-34.4906 86.1865 -22.0974 149.655 12.3387 164.8Z" stroke="url(#paint36_linear_104_402)" stroke-width="0.722043" stroke-linecap="round" stroke-dasharray="144.41 7.22" />
                <path opacity="0.344828" fill-rule="evenodd" clip-rule="evenodd" d="M12.0444 170.003C46.5842 185.188 50.6081 123.874 76.4666 109.694C100.67 96.4217 142.814 117.177 157.222 90.3919C171.716 63.4463 158.957 16.154 148.843 -24.8559C139.189 -64.0002 128.652 -109.378 100.698 -138.794C72.8485 -168.1 40.6044 -163.337 10.3161 -170.627C-9.49177 -175.395 -26.3366 -172.007 -45.57 -174C-67.0252 -176.223 -95.639 -197.454 -109.219 -183.014C-122.72 -168.658 -107.724 -131.426 -109.401 -106.125C-111.188 -79.1776 -128.456 -60.0398 -119.374 -29.8171C-110.168 0.817316 -81.1069 20.8112 -62.9683 48.3906C-36.3246 88.9021 -23.5313 154.362 12.0444 170.003Z" stroke="url(#paint37_linear_104_402)" stroke-width="0.722043" stroke-linecap="round" stroke-dasharray="144.41 7.22" />
                <path opacity="0.37931" fill-rule="evenodd" clip-rule="evenodd" d="M11.7507 175.202C47.3969 190.869 51.5599 127.699 78.2509 113.106C103.234 99.446 146.727 120.856 161.602 93.2685C176.566 65.5154 163.405 16.7822 152.972 -25.4767C143.015 -65.8131 132.147 -112.572 103.301 -142.897C74.5614 -173.109 41.2813 -168.221 10.0218 -175.751C-10.4212 -180.675 -27.8074 -177.195 -47.6579 -179.26C-69.8016 -181.564 -99.3306 -203.456 -113.348 -188.588C-127.286 -173.804 -111.815 -135.435 -113.55 -109.368C-115.398 -81.6054 -133.223 -61.8984 -123.854 -30.7543C-114.358 0.81413 -84.3671 21.4318 -65.6507 49.8582C-38.1582 91.6137 -24.9646 159.065 11.7507 175.202Z" stroke="url(#paint38_linear_104_402)" stroke-width="0.722043" stroke-linecap="round" stroke-dasharray="144.41 7.22" />
                <path opacity="0.413793" fill-rule="evenodd" clip-rule="evenodd" d="M11.4569 180.405C48.2095 196.554 52.5115 131.529 80.035 116.522C105.797 102.475 150.64 124.54 165.982 96.1494C181.415 67.5888 167.852 17.4146 157.102 -26.0932C146.84 -67.6218 135.642 -115.763 105.903 -146.996C76.2742 -178.113 41.9581 -173.101 9.72748 -180.87C-11.3507 -185.951 -29.2782 -182.379 -49.7459 -184.517C-72.578 -186.901 -103.022 -209.454 -117.478 -194.156C-131.851 -178.946 -115.905 -139.44 -117.698 -112.607C-119.607 -84.0289 -137.99 -63.7527 -128.335 -31.6871C-118.548 0.815238 -87.6274 22.0568 -68.3331 51.3301C-39.9917 94.3297 -26.398 163.772 11.4569 180.405Z" stroke="url(#paint39_linear_104_402)" stroke-width="0.722043" stroke-linecap="round" stroke-dasharray="144.41 7.22" />
                <path opacity="0.448276" fill-rule="evenodd" clip-rule="evenodd" d="M11.1632 185.606C49.0222 202.236 53.4634 135.356 81.8193 119.935C108.36 105.501 154.553 128.221 170.362 99.0277C186.265 69.6595 172.3 18.0444 161.231 -26.7124C150.666 -69.4331 139.137 -118.956 108.505 -151.097C77.9871 -183.12 42.6351 -177.983 9.43325 -185.992C-12.2801 -191.23 -30.749 -187.565 -51.8338 -189.775C-75.3543 -192.241 -106.714 -215.455 -121.608 -199.728C-136.417 -184.091 -119.995 -143.447 -121.846 -115.849C-123.817 -86.4551 -142.758 -65.6097 -132.815 -32.6227C-122.738 0.813709 -90.8876 22.6791 -71.0154 52.7994C-41.8252 97.0431 -27.8314 168.477 11.1632 185.606Z" stroke="url(#paint40_linear_104_402)" stroke-width="0.722043" stroke-linecap="round" stroke-dasharray="144.41 7.22" />
                <path opacity="0.482759" fill-rule="evenodd" clip-rule="evenodd" d="M10.8693 190.807C49.8348 207.919 54.415 139.183 83.6034 123.348C110.924 108.527 158.466 131.902 174.741 101.906C191.114 71.7307 176.747 18.6746 165.361 -27.3311C154.492 -71.244 142.632 -122.148 111.107 -155.199C79.6999 -188.126 43.312 -182.865 9.13888 -191.114C-13.2096 -196.509 -32.2198 -192.752 -53.9218 -195.034C-78.1308 -197.58 -110.405 -221.455 -125.738 -205.299C-140.983 -189.235 -124.085 -147.454 -125.994 -119.09C-128.027 -88.8809 -147.525 -67.4662 -137.296 -33.5578C-126.928 0.812572 -94.1479 23.3018 -73.6979 54.269C-43.6588 99.7568 -29.2648 173.182 10.8693 190.807Z" stroke="url(#paint41_linear_104_402)" stroke-width="0.722043" stroke-linecap="round" stroke-dasharray="144.41 7.22" />
                <path opacity="0.517241" fill-rule="evenodd" clip-rule="evenodd" d="M10.5747 196.009C50.6466 213.602 55.3659 143.011 85.3867 126.762C113.486 111.554 162.378 135.584 179.12 104.786C195.963 73.8023 181.194 19.3052 169.489 -27.9495C158.317 -73.0544 146.126 -125.34 113.709 -159.299C81.4119 -193.132 43.988 -187.747 8.84374 -196.235C-14.1399 -201.787 -33.6914 -197.937 -56.0106 -200.292C-80.908 -202.919 -114.098 -227.455 -129.869 -210.869C-145.549 -194.379 -128.176 -151.46 -130.143 -122.331C-132.238 -91.3062 -152.293 -69.3223 -141.778 -34.4925C-131.119 0.811879 -97.409 23.9249 -76.3811 55.7391C-45.4932 102.471 -30.699 177.888 10.5747 196.009Z" stroke="url(#paint42_linear_104_402)" stroke-width="0.722043" stroke-linecap="round" stroke-dasharray="144.41 7.22" />
                <path opacity="0.551724" fill-rule="evenodd" clip-rule="evenodd" d="M10.2814 201.211C51.4597 219.285 56.318 146.839 87.1713 130.176C116.05 114.581 166.292 139.266 183.501 107.665C200.813 75.8738 185.642 19.9359 173.619 -28.5678C162.143 -74.8649 149.621 -128.532 116.311 -163.4C83.1251 -198.138 44.6653 -192.628 8.54983 -201.357C-15.0689 -207.065 -35.1618 -203.123 -58.0981 -205.55C-83.684 -208.257 -117.789 -233.454 -133.998 -216.44C-150.115 -199.523 -132.266 -155.467 -134.291 -125.572C-136.447 -93.7316 -157.06 -71.1784 -146.258 -35.4271C-135.308 0.81118 -100.669 24.5481 -79.0631 57.2092C-47.3263 105.185 -32.132 182.594 10.2814 201.211Z" stroke="url(#paint43_linear_104_402)" stroke-width="0.722043" stroke-linecap="round" stroke-dasharray="144.41 7.22" />
                <path opacity="0.586207" fill-rule="evenodd" clip-rule="evenodd" d="M9.98755 206.412C52.2723 224.968 57.2697 150.666 88.9554 133.59C118.613 117.607 170.205 142.947 187.881 110.543C205.663 77.9448 190.089 20.5658 177.749 -29.1867C165.969 -76.676 153.116 -131.725 118.914 -167.501C84.8379 -203.145 45.3422 -197.511 8.25547 -206.479C-15.9984 -212.343 -36.6327 -208.309 -60.1861 -210.809C-86.4604 -213.597 -121.481 -239.455 -138.128 -222.011C-154.68 -204.668 -136.356 -159.474 -138.439 -128.813C-140.657 -96.1576 -161.827 -73.0352 -150.738 -36.3625C-139.498 0.809842 -103.929 25.1706 -81.7455 58.6787C-49.1599 107.899 -33.5654 187.299 9.98755 206.412Z" stroke="url(#paint44_linear_104_402)" stroke-width="0.722043" stroke-linecap="round" stroke-dasharray="144.41 7.22" />
                <path opacity="0.62069" fill-rule="evenodd" clip-rule="evenodd" d="M9.69254 211.614C53.0837 230.652 58.2202 154.494 90.7384 137.004C121.176 120.634 174.116 146.629 192.259 113.423C210.511 80.0168 194.536 21.1969 181.877 -29.8046C169.794 -78.486 156.61 -134.916 121.515 -171.601C86.5495 -208.15 46.0178 -202.392 7.95993 -211.599C-16.9291 -217.621 -38.1047 -213.495 -62.2753 -216.066C-89.238 -218.935 -125.173 -245.454 -142.259 -227.581C-159.247 -209.811 -140.448 -163.48 -142.588 -132.054C-144.868 -98.5825 -166.596 -74.8909 -155.22 -37.2967C-143.69 0.809584 -107.191 25.7942 -84.4291 60.1492C-50.9947 110.613 -35 192.005 9.69254 211.614Z" stroke="url(#paint45_linear_104_402)" stroke-width="0.722043" stroke-linecap="round" stroke-dasharray="144.41 7.22" />
                <path opacity="0.655172" fill-rule="evenodd" clip-rule="evenodd" d="M9.39959 216.815C53.8972 236.335 59.1728 158.321 92.5234 140.418C123.74 123.661 178.03 150.311 196.64 116.302C215.361 82.0881 198.984 21.8273 186.007 -30.4232C173.621 -80.2967 160.106 -138.109 124.118 -175.702C88.2632 -213.156 46.6956 -207.274 7.66645 -216.721C-17.8578 -222.899 -39.5747 -218.681 -64.3624 -221.325C-92.0136 -224.274 -128.864 -251.454 -146.388 -233.152C-163.812 -214.955 -144.537 -167.486 -146.736 -135.295C-149.077 -101.008 -171.363 -76.7473 -159.7 -38.2316C-147.879 0.808639 -110.45 26.4171 -87.1107 61.619C-52.8274 113.327 -36.4326 196.71 9.39959 216.815Z" stroke="url(#paint46_linear_104_402)" stroke-width="0.722043" stroke-linecap="round" stroke-dasharray="144.41 7.22" />
                <path opacity="0.689655" fill-rule="evenodd" clip-rule="evenodd" d="M9.10578 222.016C54.7098 242.018 60.1244 162.149 94.3076 143.832C126.303 126.687 181.943 153.992 201.02 119.181C220.211 84.1596 203.432 22.4578 190.137 -31.0417C177.446 -82.1073 163.601 -141.301 126.72 -179.803C89.976 -218.163 47.3724 -212.155 7.37211 -221.842C-18.7873 -228.177 -41.0455 -223.867 -66.4504 -226.583C-94.79 -229.613 -132.556 -257.454 -150.518 -238.723C-168.378 -220.099 -148.628 -171.493 -150.884 -138.536C-153.287 -103.434 -176.13 -78.6035 -164.181 -39.1665C-152.069 0.807777 -113.71 27.0401 -89.7931 63.089C-54.661 116.041 -37.866 201.416 9.10578 222.016Z" stroke="url(#paint47_linear_104_402)" stroke-width="0.722043" stroke-linecap="round" stroke-dasharray="144.41 7.22" />
                <path opacity="0.724138" fill-rule="evenodd" clip-rule="evenodd" d="M8.81204 227.218C55.5225 247.701 61.0762 165.977 96.0918 147.246C128.866 129.714 185.856 157.674 205.4 122.06C225.06 86.2312 207.879 23.0884 194.266 -31.66C181.272 -83.9177 167.096 -144.493 129.322 -183.904C91.6889 -223.169 48.0494 -217.037 7.07783 -226.963C-19.7167 -233.455 -42.5163 -229.052 -68.5383 -231.841C-97.5664 -234.951 -136.247 -263.454 -154.648 -244.294C-172.943 -225.243 -152.718 -175.499 -155.032 -141.777C-157.497 -105.859 -180.897 -80.4596 -168.661 -40.1012C-156.259 0.807091 -116.971 27.6632 -92.4755 64.5591C-56.4945 118.755 -39.2994 206.121 8.81204 227.218Z" stroke="url(#paint48_linear_104_402)" stroke-width="0.722043" stroke-linecap="round" stroke-dasharray="144.41 7.22" />
                <path opacity="0.758621" fill-rule="evenodd" clip-rule="evenodd" d="M8.51783 232.42C56.3347 253.384 62.0275 169.804 97.8755 150.66C131.429 132.741 189.769 161.356 209.779 124.939C229.91 88.3028 212.326 23.7192 198.395 -32.2782C185.098 -85.728 170.59 -147.685 131.924 -188.004C93.4013 -228.174 48.7258 -221.919 6.7831 -232.085C-20.6466 -238.733 -43.9875 -234.238 -70.6267 -237.099C-100.343 -240.29 -139.939 -269.453 -158.778 -249.864C-177.509 -230.387 -156.809 -179.506 -159.181 -145.017C-161.707 -108.284 -185.665 -82.3157 -173.142 -41.0358C-160.449 0.806474 -120.231 28.2864 -95.1583 66.0292C-58.3285 121.47 -40.7332 210.827 8.51783 232.42Z" stroke="url(#paint49_linear_104_402)" stroke-width="0.722043" stroke-linecap="round" stroke-dasharray="144.41 7.22" />
                <path opacity="0.793103" fill-rule="evenodd" clip-rule="evenodd" d="M8.22447 237.622C57.1478 259.068 62.9796 173.633 99.6601 154.075C133.993 135.769 193.682 165.039 214.159 127.819C234.76 90.375 216.774 24.3504 202.525 -32.8959C188.924 -87.5379 174.085 -150.876 134.526 -192.105C95.1145 -233.18 49.4031 -226.8 6.48919 -237.205C-21.5756 -244.01 -45.4579 -239.423 -72.7142 -242.356C-103.119 -245.628 -143.631 -275.453 -162.908 -255.434C-182.075 -235.53 -160.898 -183.512 -163.328 -148.258C-165.917 -110.709 -190.432 -84.1712 -177.623 -41.9698C-164.639 0.806401 -123.491 28.9102 -97.8402 67.4999C-60.1616 124.184 -42.1661 215.533 8.22447 237.622Z" stroke="url(#paint50_linear_104_402)" stroke-width="0.722043" stroke-linecap="round" stroke-dasharray="144.41 7.22" />
                <path opacity="0.827586" fill-rule="evenodd" clip-rule="evenodd" d="M7.92985 242.823C57.9596 264.75 63.9305 177.46 101.443 157.488C136.556 138.795 197.594 168.72 218.539 130.697C239.608 92.4459 221.221 24.9803 206.654 -33.515C192.749 -89.3491 177.579 -154.069 137.128 -196.206C96.8265 -238.187 50.0792 -231.682 6.19404 -242.327C-22.5059 -249.289 -46.9295 -244.61 -74.8031 -247.615C-105.896 -250.968 -147.323 -281.453 -167.039 -261.006C-186.641 -240.675 -164.989 -187.519 -167.478 -151.499C-170.128 -113.135 -195.2 -86.028 -182.104 -42.9052C-168.83 0.804981 -126.752 29.5327 -100.523 68.9693C-61.996 126.898 -43.6004 220.238 7.92985 242.823Z" stroke="url(#paint51_linear_104_402)" stroke-width="0.722043" stroke-linecap="round" stroke-dasharray="144.41 7.22" />
                <path opacity="0.862069" fill-rule="evenodd" clip-rule="evenodd" d="M7.63687 248.026C58.773 270.434 64.883 181.288 103.228 160.903C139.12 141.823 201.508 172.403 222.919 133.577C244.459 94.5185 225.669 25.6119 210.784 -34.1323C196.576 -91.1586 181.075 -157.26 139.731 -200.306C98.5402 -243.192 50.7569 -236.562 5.90052 -247.448C-23.4346 -254.566 -48.3995 -249.794 -76.8902 -252.872C-108.672 -256.305 -151.014 -287.452 -171.168 -266.575C-191.206 -245.818 -169.079 -191.524 -171.625 -154.739C-174.337 -115.559 -199.967 -87.8831 -186.584 -43.8389C-173.019 0.805293 -130.012 30.1568 -103.205 70.4404C-63.8288 129.613 -45.033 224.945 7.63687 248.026Z" stroke="url(#paint52_linear_104_402)" stroke-width="0.722043" stroke-linecap="round" stroke-dasharray="144.41 7.22" />
                <path opacity="0.896552" fill-rule="evenodd" clip-rule="evenodd" d="M7.34228 253.226C59.5849 276.117 65.834 185.115 105.012 164.316C141.682 144.848 205.42 176.084 227.298 136.455C249.307 96.5891 230.116 26.2416 214.913 -34.7515C200.401 -92.9699 184.569 -160.453 142.332 -204.407C100.252 -248.198 51.433 -241.445 5.60541 -252.57C-24.3648 -259.845 -49.8711 -254.981 -78.979 -258.131C-111.449 -261.645 -154.706 -293.453 -175.298 -272.147C-195.772 -250.963 -173.17 -195.532 -175.774 -157.981C-178.547 -117.986 -204.735 -89.7402 -191.065 -44.7745C-177.21 0.803657 -133.273 30.779 -105.888 71.9096C-65.6631 132.326 -46.4672 229.65 7.34228 253.226Z" stroke="url(#paint53_linear_104_402)" stroke-width="0.722043" stroke-linecap="round" stroke-dasharray="144.41 7.22" />
                <path opacity="0.931035" fill-rule="evenodd" clip-rule="evenodd" d="M7.04771 258.428C60.3967 281.8 66.7849 188.943 106.795 167.731C144.245 147.876 209.333 179.766 231.677 139.335C254.156 98.661 234.563 26.8725 219.041 -35.3696C204.226 -94.7801 188.063 -163.644 144.934 -208.508C101.964 -253.204 52.1091 -246.326 5.31031 -257.691C-25.2951 -265.123 -51.3427 -260.166 -81.0677 -263.389C-114.226 -266.983 -158.399 -299.452 -179.429 -277.717C-200.339 -256.106 -177.261 -199.538 -179.923 -161.221C-182.758 -120.411 -209.503 -91.5961 -195.547 -45.709C-181.401 0.803197 -136.534 31.4024 -108.571 73.3799C-67.4975 135.041 -47.9013 234.355 7.04771 258.428Z" stroke="url(#paint54_linear_104_402)" stroke-width="0.722043" stroke-linecap="round" stroke-dasharray="144.41 7.22" />
                <path opacity="0.965517" fill-rule="evenodd" clip-rule="evenodd" d="M6.75477 263.629C61.2102 287.482 67.7375 192.77 108.58 171.144C146.809 150.901 213.247 183.446 236.058 142.213C259.007 100.732 239.011 27.5021 223.172 -35.9889C208.052 -96.5916 191.559 -166.838 147.537 -212.609C103.678 -258.211 52.7868 -251.209 5.01685 -262.813C-26.2237 -270.402 -52.8127 -265.353 -83.1548 -268.648C-117.002 -272.323 -162.089 -305.453 -183.558 -283.289C-204.904 -261.251 -181.35 -203.545 -184.07 -164.463C-186.967 -122.837 -214.269 -93.4532 -200.027 -46.6447C-185.59 0.801431 -139.793 32.0245 -111.253 74.8489C-69.3302 137.754 -49.3339 239.06 6.75477 263.629Z" stroke="url(#paint55_linear_104_402)" stroke-width="0.722043" stroke-linecap="round" stroke-dasharray="144.41 7.22" />
                <path fill-rule="evenodd" clip-rule="evenodd" d="M6.46055 268.831C62.0224 293.166 68.6887 196.598 110.364 174.558C149.372 153.929 217.159 187.129 240.437 145.092C263.856 102.803 243.458 28.1331 227.301 -36.6069C211.878 -98.4017 195.054 -170.029 150.138 -216.71C105.39 -263.217 53.4632 -256.09 4.72207 -267.934C-27.1536 -275.679 -54.2839 -270.539 -85.2432 -273.906C-119.779 -277.661 -165.781 -311.452 -187.688 -288.859C-209.47 -266.395 -185.441 -207.551 -188.219 -167.703C-191.177 -125.262 -219.037 -95.309 -204.508 -47.579C-189.78 0.801153 -143.054 32.648 -113.936 76.3194C-71.1642 140.468 -50.7677 243.766 6.46055 268.831Z" stroke="url(#paint56_linear_104_402)" stroke-width="0.722043" stroke-linecap="round" stroke-dasharray="144.41 7.22" />
            </g>
        </g>
        <g filter="url(#filter9_bi_104_402)">
            <rect x="179.386" y="28.5776" width="24.3829" height="19.5063" rx="5.77634" transform="rotate(-18.4199 179.386 28.5776)" fill="white" fill-opacity="0.2" />
        </g>
        <path opacity="0.9" fill-rule="evenodd" clip-rule="evenodd" d="M195.308 29.7984L199.206 28.5031L199.353 28.9187L195.652 30.1512L196.602 32.9859L200.367 31.7903L200.514 32.2059L196.742 33.4036L197.655 36.1288L201.446 34.863L201.593 35.2787L197.592 36.611C197.482 36.646 197.357 36.5845 197.317 36.4663L197.124 35.8902L195.162 36.5135L195.75 38.2698C195.769 38.3261 195.765 38.3863 195.74 38.4371L195.279 39.288L194.693 39.4815L195.313 38.3105L194.754 36.6429L192.791 37.2662L192.97 37.8058C193.01 37.9234 192.947 38.0435 192.837 38.0783L188.802 39.4025L188.664 38.9842L192.493 37.7256L191.594 35.0384L187.761 36.2556L187.623 35.8374L191.454 34.6207L190.536 31.864L186.72 33.1087L186.582 32.6905L190.599 31.3818C190.709 31.3468 190.834 31.4083 190.874 31.5265L191.072 32.1341L193.034 31.5108L192.446 29.7545C192.427 29.6982 192.431 29.638 192.457 29.5872L192.458 29.5842L192.741 28.9206L193.336 28.7243L192.884 29.716L193.442 31.3814L195.405 30.7581L195.175 30.0709C195.135 29.9533 195.198 29.8332 195.308 29.7984ZM196.984 35.4725L195.545 31.1758L191.212 32.5518L192.652 36.8485L196.984 35.4725Z" fill="white" />
        <path fill-rule="evenodd" clip-rule="evenodd" d="M54.266 160.55C54.6471 160.089 55.3298 160.024 55.7908 160.405L62.1737 165.681C62.6348 166.062 62.6996 166.745 62.3185 167.206C61.9375 167.667 61.2548 167.732 60.7937 167.351L54.4108 162.075C53.9498 161.694 53.8849 161.011 54.266 160.55Z" fill="white" />
        <path fill-rule="evenodd" clip-rule="evenodd" d="M64.4702 152.968C64.0732 153.415 64.1141 154.1 64.5616 154.497C66.3787 156.109 67.7395 158.171 68.5071 160.476C69.2747 162.781 69.4221 165.247 68.9344 167.627C68.8144 168.213 69.1921 168.785 69.7781 168.905C70.364 169.026 70.9364 168.648 71.0565 168.062C71.6205 165.31 71.45 162.457 70.5623 159.792C69.6745 157.126 68.1008 154.741 65.9992 152.877C65.5517 152.48 64.8672 152.52 64.4702 152.968Z" fill="white" />
        <path fill-rule="evenodd" clip-rule="evenodd" d="M61.5572 156.251C61.1603 156.698 61.2012 157.383 61.6486 157.78C62.8895 158.881 63.8187 160.289 64.3429 161.863C64.8671 163.437 64.9677 165.121 64.6347 166.746C64.5146 167.332 64.8923 167.904 65.4783 168.025C66.0643 168.145 66.6367 167.767 66.7567 167.181C67.1661 165.183 67.0423 163.113 66.398 161.179C65.7537 159.244 64.6115 157.513 63.0862 156.16C62.6388 155.763 61.9542 155.804 61.5572 156.251Z" fill="white" />
        <path fill-rule="evenodd" clip-rule="evenodd" d="M58.3947 159.155C57.9977 159.602 58.0386 160.287 58.486 160.684C59.2659 161.376 59.8499 162.261 60.1793 163.25C60.5087 164.239 60.572 165.297 60.3627 166.318C60.2426 166.904 60.6203 167.477 61.2063 167.597C61.7923 167.717 62.3646 167.339 62.4847 166.753C62.7703 165.359 62.684 163.915 62.2344 162.565C61.7849 161.215 60.9879 160.008 59.9236 159.063C59.4762 158.666 58.7916 158.707 58.3947 159.155Z" fill="white" />
        <path fill-rule="evenodd" clip-rule="evenodd" d="M55.3775 160.16C55.9634 160.28 56.3411 160.852 56.2211 161.438C56.0118 162.459 56.075 163.518 56.4044 164.507C56.7339 165.496 57.3179 166.381 58.0977 167.073C58.5451 167.47 58.586 168.154 58.1891 168.602C57.7921 169.049 57.1076 169.09 56.6601 168.693C55.5958 167.749 54.7989 166.541 54.3493 165.191C53.8997 163.841 53.8134 162.397 54.099 161.003C54.2191 160.417 54.7915 160.039 55.3775 160.16Z" fill="white" />
    </g>
    <defs>
        <filter id="filter0_f_104_402" x="-5.53605" y="-97.6597" width="343.155" height="383.771" filterUnits="userSpaceOnUse" color-interpolation-filters="sRGB">
            <feFlood flood-opacity="0" result="BackgroundImageFix" />
            <feBlend mode="normal" in="SourceGraphic" in2="BackgroundImageFix" result="shape" />
            <feGaussianBlur stdDeviation="47.9062" result="effect1_foregroundBlur_104_402" />
        </filter>
        <filter id="filter1_f_104_402" x="69.4549" y="-28.0207" width="326.475" height="286.705" filterUnits="userSpaceOnUse" color-interpolation-filters="sRGB">
            <feFlood flood-opacity="0" result="BackgroundImageFix" />
            <feBlend mode="normal" in="SourceGraphic" in2="BackgroundImageFix" result="shape" />
            <feGaussianBlur stdDeviation="47.9062" result="effect1_foregroundBlur_104_402" />
        </filter>
        <filter id="filter2_f_104_402" x="37.4276" y="29.266" width="362.232" height="283.713" filterUnits="userSpaceOnUse" color-interpolation-filters="sRGB">
            <feFlood flood-opacity="0" result="BackgroundImageFix" />
            <feBlend mode="normal" in="SourceGraphic" in2="BackgroundImageFix" result="shape" />
            <feGaussianBlur stdDeviation="47.9062" result="effect1_foregroundBlur_104_402" />
        </filter>
        <filter id="filter3_f_104_402" x="1.13179" y="-102.246" width="341.443" height="310.377" filterUnits="userSpaceOnUse" color-interpolation-filters="sRGB">
            <feFlood flood-opacity="0" result="BackgroundImageFix" />
            <feBlend mode="normal" in="SourceGraphic" in2="BackgroundImageFix" result="shape" />
            <feGaussianBlur stdDeviation="47.9062" result="effect1_foregroundBlur_104_402" />
        </filter>
        <filter id="filter4_bi_104_402" x="193.137" y="2.51467" width="121.932" height="119.523" filterUnits="userSpaceOnUse" color-interpolation-filters="sRGB">
            <feFlood flood-opacity="0" result="BackgroundImageFix" />
            <feGaussianBlur in="BackgroundImage" stdDeviation="25.3621" />
            <feComposite in2="SourceAlpha" operator="in" result="effect1_backgroundBlur_104_402" />
            <feBlend mode="normal" in="SourceGraphic" in2="effect1_backgroundBlur_104_402" result="shape" />
            <feColorMatrix in="SourceAlpha" type="matrix" values="0 0 0 0 0 0 0 0 0 0 0 0 0 0 0 0 0 0 127 0" result="hardAlpha" />
            <feMorphology radius="1.69081" operator="erode" in="SourceAlpha" result="effect2_innerShadow_104_402" />
            <feOffset dy="2.25441" />
            <feGaussianBlur stdDeviation="3.94522" />
            <feComposite in2="hardAlpha" operator="arithmetic" k2="-1" k3="1" />
            <feColorMatrix type="matrix" values="0 0 0 0 1 0 0 0 0 1 0 0 0 0 1 0 0 0 0.25 0" />
            <feBlend mode="normal" in2="shape" result="effect2_innerShadow_104_402" />
        </filter>
        <filter id="filter5_f_104_402" x="-138.594" y="-170.918" width="439.623" height="491.657" filterUnits="userSpaceOnUse" color-interpolation-filters="sRGB">
            <feFlood flood-opacity="0" result="BackgroundImageFix" />
            <feBlend mode="normal" in="SourceGraphic" in2="BackgroundImageFix" result="shape" />
            <feGaussianBlur stdDeviation="61.3736" result="effect1_foregroundBlur_104_402" />
        </filter>
        <filter id="filter6_f_104_402" x="-42.5222" y="-81.7023" width="418.254" height="367.303" filterUnits="userSpaceOnUse" color-interpolation-filters="sRGB">
            <feFlood flood-opacity="0" result="BackgroundImageFix" />
            <feBlend mode="normal" in="SourceGraphic" in2="BackgroundImageFix" result="shape" />
            <feGaussianBlur stdDeviation="61.3736" result="effect1_foregroundBlur_104_402" />
        </filter>
        <filter id="filter7_f_104_402" x="-83.5527" y="-8.31114" width="464.062" height="363.47" filterUnits="userSpaceOnUse" color-interpolation-filters="sRGB">
            <feFlood flood-opacity="0" result="BackgroundImageFix" />
            <feBlend mode="normal" in="SourceGraphic" in2="BackgroundImageFix" result="shape" />
            <feGaussianBlur stdDeviation="61.3736" result="effect1_foregroundBlur_104_402" />
        </filter>
        <filter id="filter8_f_104_402" x="-130.052" y="-176.794" width="437.43" height="397.63" filterUnits="userSpaceOnUse" color-interpolation-filters="sRGB">
            <feFlood flood-opacity="0" result="BackgroundImageFix" />
            <feBlend mode="normal" in="SourceGraphic" in2="BackgroundImageFix" result="shape" />
            <feGaussianBlur stdDeviation="61.3736" result="effect1_foregroundBlur_104_402" />
        </filter>
        <filter id="filter9_bi_104_402" x="115.93" y="-42.583" width="156.21" height="153.124" filterUnits="userSpaceOnUse" color-interpolation-filters="sRGB">
            <feFlood flood-opacity="0" result="BackgroundImageFix" />
            <feGaussianBlur in="BackgroundImage" stdDeviation="32.4919" />
            <feComposite in2="SourceAlpha" operator="in" result="effect1_backgroundBlur_104_402" />
            <feBlend mode="normal" in="SourceGraphic" in2="effect1_backgroundBlur_104_402" result="shape" />
            <feColorMatrix in="SourceAlpha" type="matrix" values="0 0 0 0 0 0 0 0 0 0 0 0 0 0 0 0 0 0 127 0" result="hardAlpha" />
            <feMorphology radius="2.16613" operator="erode" in="SourceAlpha" result="effect2_innerShadow_104_402" />
            <feOffset dy="2.88817" />
            <feGaussianBlur stdDeviation="5.0543" />
            <feComposite in2="hardAlpha" operator="arithmetic" k2="-1" k3="1" />
            <feColorMatrix type="matrix" values="0 0 0 0 1 0 0 0 0 1 0 0 0 0 1 0 0 0 0.25 0" />
            <feBlend mode="normal" in2="shape" result="effect2_innerShadow_104_402" />
        </filter>
        <linearGradient id="paint0_linear_104_402" x1="384.831" y1="92.0952" x2="357.882" y2="285.015" gradientUnits="userSpaceOnUse">
            <stop stop-color="white" stop-opacity="0.12" />
            <stop offset="1" stop-color="white" stop-opacity="0.38" />
        </linearGradient>
        <linearGradient id="paint1_linear_104_402" x1="383.584" y1="87.9775" x2="355.554" y2="288.633" gradientUnits="userSpaceOnUse">
            <stop stop-color="white" stop-opacity="0.12" />
            <stop offset="1" stop-color="white" stop-opacity="0.38" />
        </linearGradient>
        <linearGradient id="paint2_linear_104_402" x1="382.335" y1="83.8599" x2="353.226" y2="292.251" gradientUnits="userSpaceOnUse">
            <stop stop-color="white" stop-opacity="0.12" />
            <stop offset="1" stop-color="white" stop-opacity="0.38" />
        </linearGradient>
        <linearGradient id="paint3_linear_104_402" x1="381.087" y1="79.7419" x2="350.897" y2="295.869" gradientUnits="userSpaceOnUse">
            <stop stop-color="white" stop-opacity="0.12" />
            <stop offset="1" stop-color="white" stop-opacity="0.38" />
        </linearGradient>
        <linearGradient id="paint4_linear_104_402" x1="379.839" y1="75.6238" x2="348.568" y2="299.486" gradientUnits="userSpaceOnUse">
            <stop stop-color="white" stop-opacity="0.12" />
            <stop offset="1" stop-color="white" stop-opacity="0.38" />
        </linearGradient>
        <linearGradient id="paint5_linear_104_402" x1="378.592" y1="71.5067" x2="346.24" y2="303.105" gradientUnits="userSpaceOnUse">
            <stop stop-color="white" stop-opacity="0.12" />
            <stop offset="1" stop-color="white" stop-opacity="0.38" />
        </linearGradient>
        <linearGradient id="paint6_linear_104_402" x1="377.343" y1="67.3886" x2="343.911" y2="306.722" gradientUnits="userSpaceOnUse">
            <stop stop-color="white" stop-opacity="0.12" />
            <stop offset="1" stop-color="white" stop-opacity="0.38" />
        </linearGradient>
        <linearGradient id="paint7_linear_104_402" x1="376.095" y1="63.2715" x2="341.582" y2="310.341" gradientUnits="userSpaceOnUse">
            <stop stop-color="white" stop-opacity="0.12" />
            <stop offset="1" stop-color="white" stop-opacity="0.38" />
        </linearGradient>
        <linearGradient id="paint8_linear_104_402" x1="374.847" y1="59.1527" x2="339.253" y2="313.958" gradientUnits="userSpaceOnUse">
            <stop stop-color="white" stop-opacity="0.12" />
            <stop offset="1" stop-color="white" stop-opacity="0.38" />
        </linearGradient>
        <linearGradient id="paint9_linear_104_402" x1="373.599" y1="55.0369" x2="336.925" y2="317.578" gradientUnits="userSpaceOnUse">
            <stop stop-color="white" stop-opacity="0.12" />
            <stop offset="1" stop-color="white" stop-opacity="0.38" />
        </linearGradient>
        <linearGradient id="paint10_linear_104_402" x1="372.35" y1="50.9177" x2="334.596" y2="321.194" gradientUnits="userSpaceOnUse">
            <stop stop-color="white" stop-opacity="0.12" />
            <stop offset="1" stop-color="white" stop-opacity="0.38" />
        </linearGradient>
        <linearGradient id="paint11_linear_104_402" x1="371.102" y1="46.8006" x2="332.267" y2="324.813" gradientUnits="userSpaceOnUse">
            <stop stop-color="white" stop-opacity="0.12" />
            <stop offset="1" stop-color="white" stop-opacity="0.38" />
        </linearGradient>
        <linearGradient id="paint12_linear_104_402" x1="369.854" y1="42.6833" x2="329.939" y2="328.431" gradientUnits="userSpaceOnUse">
            <stop stop-color="white" stop-opacity="0.12" />
            <stop offset="1" stop-color="white" stop-opacity="0.38" />
        </linearGradient>
        <linearGradient id="paint13_linear_104_402" x1="368.607" y1="38.5654" x2="327.61" y2="332.049" gradientUnits="userSpaceOnUse">
            <stop stop-color="white" stop-opacity="0.12" />
            <stop offset="1" stop-color="white" stop-opacity="0.38" />
        </linearGradient>
        <linearGradient id="paint14_linear_104_402" x1="367.358" y1="34.4477" x2="325.281" y2="335.667" gradientUnits="userSpaceOnUse">
            <stop stop-color="white" stop-opacity="0.12" />
            <stop offset="1" stop-color="white" stop-opacity="0.38" />
        </linearGradient>
        <linearGradient id="paint15_linear_104_402" x1="366.11" y1="30.3305" x2="322.952" y2="339.286" gradientUnits="userSpaceOnUse">
            <stop stop-color="white" stop-opacity="0.12" />
            <stop offset="1" stop-color="white" stop-opacity="0.38" />
        </linearGradient>
        <linearGradient id="paint16_linear_104_402" x1="364.863" y1="26.2122" x2="320.624" y2="342.903" gradientUnits="userSpaceOnUse">
            <stop stop-color="white" stop-opacity="0.12" />
            <stop offset="1" stop-color="white" stop-opacity="0.38" />
        </linearGradient>
        <linearGradient id="paint17_linear_104_402" x1="363.614" y1="22.0948" x2="318.295" y2="346.522" gradientUnits="userSpaceOnUse">
            <stop stop-color="white" stop-opacity="0.12" />
            <stop offset="1" stop-color="white" stop-opacity="0.38" />
        </linearGradient>
        <linearGradient id="paint18_linear_104_402" x1="362.366" y1="17.9772" x2="315.966" y2="350.14" gradientUnits="userSpaceOnUse">
            <stop stop-color="white" stop-opacity="0.12" />
            <stop offset="1" stop-color="white" stop-opacity="0.38" />
        </linearGradient>
        <linearGradient id="paint19_linear_104_402" x1="361.118" y1="13.8594" x2="313.637" y2="353.758" gradientUnits="userSpaceOnUse">
            <stop stop-color="white" stop-opacity="0.12" />
            <stop offset="1" stop-color="white" stop-opacity="0.38" />
        </linearGradient>
        <linearGradient id="paint20_linear_104_402" x1="359.87" y1="9.74159" x2="311.309" y2="357.376" gradientUnits="userSpaceOnUse">
            <stop stop-color="white" stop-opacity="0.12" />
            <stop offset="1" stop-color="white" stop-opacity="0.38" />
        </linearGradient>
        <linearGradient id="paint21_linear_104_402" x1="358.621" y1="5.62344" x2="308.98" y2="360.993" gradientUnits="userSpaceOnUse">
            <stop stop-color="white" stop-opacity="0.12" />
            <stop offset="1" stop-color="white" stop-opacity="0.38" />
        </linearGradient>
        <linearGradient id="paint22_linear_104_402" x1="357.374" y1="1.50606" x2="306.652" y2="364.612" gradientUnits="userSpaceOnUse">
            <stop stop-color="white" stop-opacity="0.12" />
            <stop offset="1" stop-color="white" stop-opacity="0.38" />
        </linearGradient>
        <linearGradient id="paint23_linear_104_402" x1="356.125" y1="-2.61231" x2="304.322" y2="368.229" gradientUnits="userSpaceOnUse">
            <stop stop-color="white" stop-opacity="0.12" />
            <stop offset="1" stop-color="white" stop-opacity="0.38" />
        </linearGradient>
        <linearGradient id="paint24_linear_104_402" x1="354.877" y1="-6.72951" x2="301.994" y2="371.847" gradientUnits="userSpaceOnUse">
            <stop stop-color="white" stop-opacity="0.12" />
            <stop offset="1" stop-color="white" stop-opacity="0.38" />
        </linearGradient>
        <linearGradient id="paint25_linear_104_402" x1="353.63" y1="-10.8475" x2="299.666" y2="375.465" gradientUnits="userSpaceOnUse">
            <stop stop-color="white" stop-opacity="0.12" />
            <stop offset="1" stop-color="white" stop-opacity="0.38" />
        </linearGradient>
        <linearGradient id="paint26_linear_104_402" x1="352.381" y1="-14.9643" x2="297.337" y2="379.084" gradientUnits="userSpaceOnUse">
            <stop stop-color="white" stop-opacity="0.12" />
            <stop offset="1" stop-color="white" stop-opacity="0.38" />
        </linearGradient>
        <linearGradient id="paint27_linear_104_402" x1="351.133" y1="-19.0824" x2="295.008" y2="382.702" gradientUnits="userSpaceOnUse">
            <stop stop-color="white" stop-opacity="0.12" />
            <stop offset="1" stop-color="white" stop-opacity="0.38" />
        </linearGradient>
        <linearGradient id="paint28_linear_104_402" x1="32.4839" y1="129.573" x2="112.573" y2="-96.1882" gradientUnits="userSpaceOnUse">
            <stop stop-color="white" stop-opacity="0.12" />
            <stop offset="1" stop-color="white" stop-opacity="0.38" />
        </linearGradient>
        <linearGradient id="paint29_linear_104_402" x1="32.9919" y1="135.061" x2="116.427" y2="-100.131" gradientUnits="userSpaceOnUse">
            <stop stop-color="white" stop-opacity="0.12" />
            <stop offset="1" stop-color="white" stop-opacity="0.38" />
        </linearGradient>
        <linearGradient id="paint30_linear_104_402" x1="33.4987" y1="140.55" x2="120.279" y2="-104.073" gradientUnits="userSpaceOnUse">
            <stop stop-color="white" stop-opacity="0.12" />
            <stop offset="1" stop-color="white" stop-opacity="0.38" />
        </linearGradient>
        <linearGradient id="paint31_linear_104_402" x1="34.0063" y1="146.039" x2="124.132" y2="-108.015" gradientUnits="userSpaceOnUse">
            <stop stop-color="white" stop-opacity="0.12" />
            <stop offset="1" stop-color="white" stop-opacity="0.38" />
        </linearGradient>
        <linearGradient id="paint32_linear_104_402" x1="34.514" y1="151.528" x2="127.986" y2="-111.956" gradientUnits="userSpaceOnUse">
            <stop stop-color="white" stop-opacity="0.12" />
            <stop offset="1" stop-color="white" stop-opacity="0.38" />
        </linearGradient>
        <linearGradient id="paint33_linear_104_402" x1="35.0215" y1="157.018" x2="131.839" y2="-115.898" gradientUnits="userSpaceOnUse">
            <stop stop-color="white" stop-opacity="0.12" />
            <stop offset="1" stop-color="white" stop-opacity="0.38" />
        </linearGradient>
        <linearGradient id="paint34_linear_104_402" x1="35.5278" y1="162.505" x2="135.691" y2="-119.84" gradientUnits="userSpaceOnUse">
            <stop stop-color="white" stop-opacity="0.12" />
            <stop offset="1" stop-color="white" stop-opacity="0.38" />
        </linearGradient>
        <linearGradient id="paint35_linear_104_402" x1="36.0359" y1="167.995" x2="139.544" y2="-123.782" gradientUnits="userSpaceOnUse">
            <stop stop-color="white" stop-opacity="0.12" />
            <stop offset="1" stop-color="white" stop-opacity="0.38" />
        </linearGradient>
        <linearGradient id="paint36_linear_104_402" x1="36.5439" y1="173.483" x2="143.398" y2="-127.724" gradientUnits="userSpaceOnUse">
            <stop stop-color="white" stop-opacity="0.12" />
            <stop offset="1" stop-color="white" stop-opacity="0.38" />
        </linearGradient>
        <linearGradient id="paint37_linear_104_402" x1="37.051" y1="178.973" x2="147.251" y2="-131.665" gradientUnits="userSpaceOnUse">
            <stop stop-color="white" stop-opacity="0.12" />
            <stop offset="1" stop-color="white" stop-opacity="0.38" />
        </linearGradient>
        <linearGradient id="paint38_linear_104_402" x1="37.5586" y1="184.46" x2="151.104" y2="-135.609" gradientUnits="userSpaceOnUse">
            <stop stop-color="white" stop-opacity="0.12" />
            <stop offset="1" stop-color="white" stop-opacity="0.38" />
        </linearGradient>
        <linearGradient id="paint39_linear_104_402" x1="38.0662" y1="189.95" x2="154.957" y2="-139.549" gradientUnits="userSpaceOnUse">
            <stop stop-color="white" stop-opacity="0.12" />
            <stop offset="1" stop-color="white" stop-opacity="0.38" />
        </linearGradient>
        <linearGradient id="paint40_linear_104_402" x1="38.5739" y1="195.439" x2="158.81" y2="-143.492" gradientUnits="userSpaceOnUse">
            <stop stop-color="white" stop-opacity="0.12" />
            <stop offset="1" stop-color="white" stop-opacity="0.38" />
        </linearGradient>
        <linearGradient id="paint41_linear_104_402" x1="39.0814" y1="200.927" x2="162.663" y2="-147.434" gradientUnits="userSpaceOnUse">
            <stop stop-color="white" stop-opacity="0.12" />
            <stop offset="1" stop-color="white" stop-opacity="0.38" />
        </linearGradient>
        <linearGradient id="paint42_linear_104_402" x1="39.5882" y1="206.416" x2="166.516" y2="-151.376" gradientUnits="userSpaceOnUse">
            <stop stop-color="white" stop-opacity="0.12" />
            <stop offset="1" stop-color="white" stop-opacity="0.38" />
        </linearGradient>
        <linearGradient id="paint43_linear_104_402" x1="40.0962" y1="211.905" x2="170.369" y2="-155.318" gradientUnits="userSpaceOnUse">
            <stop stop-color="white" stop-opacity="0.12" />
            <stop offset="1" stop-color="white" stop-opacity="0.38" />
        </linearGradient>
        <linearGradient id="paint44_linear_104_402" x1="40.6037" y1="217.393" x2="174.222" y2="-159.26" gradientUnits="userSpaceOnUse">
            <stop stop-color="white" stop-opacity="0.12" />
            <stop offset="1" stop-color="white" stop-opacity="0.38" />
        </linearGradient>
        <linearGradient id="paint45_linear_104_402" x1="41.1101" y1="222.883" x2="178.074" y2="-163.202" gradientUnits="userSpaceOnUse">
            <stop stop-color="white" stop-opacity="0.12" />
            <stop offset="1" stop-color="white" stop-opacity="0.38" />
        </linearGradient>
        <linearGradient id="paint46_linear_104_402" x1="41.6185" y1="228.371" x2="181.928" y2="-167.144" gradientUnits="userSpaceOnUse">
            <stop stop-color="white" stop-opacity="0.12" />
            <stop offset="1" stop-color="white" stop-opacity="0.38" />
        </linearGradient>
        <linearGradient id="paint47_linear_104_402" x1="42.1261" y1="233.86" x2="185.781" y2="-171.086" gradientUnits="userSpaceOnUse">
            <stop stop-color="white" stop-opacity="0.12" />
            <stop offset="1" stop-color="white" stop-opacity="0.38" />
        </linearGradient>
        <linearGradient id="paint48_linear_104_402" x1="42.6337" y1="239.349" x2="189.635" y2="-175.028" gradientUnits="userSpaceOnUse">
            <stop stop-color="white" stop-opacity="0.12" />
            <stop offset="1" stop-color="white" stop-opacity="0.38" />
        </linearGradient>
        <linearGradient id="paint49_linear_104_402" x1="43.1408" y1="244.838" x2="193.487" y2="-178.969" gradientUnits="userSpaceOnUse">
            <stop stop-color="white" stop-opacity="0.12" />
            <stop offset="1" stop-color="white" stop-opacity="0.38" />
        </linearGradient>
        <linearGradient id="paint50_linear_104_402" x1="43.6488" y1="250.328" x2="197.341" y2="-182.911" gradientUnits="userSpaceOnUse">
            <stop stop-color="white" stop-opacity="0.12" />
            <stop offset="1" stop-color="white" stop-opacity="0.38" />
        </linearGradient>
        <linearGradient id="paint51_linear_104_402" x1="44.1556" y1="255.816" x2="201.193" y2="-186.853" gradientUnits="userSpaceOnUse">
            <stop stop-color="white" stop-opacity="0.12" />
            <stop offset="1" stop-color="white" stop-opacity="0.38" />
        </linearGradient>
        <linearGradient id="paint52_linear_104_402" x1="44.664" y1="261.306" x2="205.047" y2="-190.794" gradientUnits="userSpaceOnUse">
            <stop stop-color="white" stop-opacity="0.12" />
            <stop offset="1" stop-color="white" stop-opacity="0.38" />
        </linearGradient>
        <linearGradient id="paint53_linear_104_402" x1="45.1708" y1="266.794" x2="208.9" y2="-194.737" gradientUnits="userSpaceOnUse">
            <stop stop-color="white" stop-opacity="0.12" />
            <stop offset="1" stop-color="white" stop-opacity="0.38" />
        </linearGradient>
        <linearGradient id="paint54_linear_104_402" x1="45.6776" y1="272.283" x2="212.752" y2="-198.678" gradientUnits="userSpaceOnUse">
            <stop stop-color="white" stop-opacity="0.12" />
            <stop offset="1" stop-color="white" stop-opacity="0.38" />
        </linearGradient>
        <linearGradient id="paint55_linear_104_402" x1="46.186" y1="277.771" x2="216.606" y2="-202.621" gradientUnits="userSpaceOnUse">
            <stop stop-color="white" stop-opacity="0.12" />
            <stop offset="1" stop-color="white" stop-opacity="0.38" />
        </linearGradient>
        <linearGradient id="paint56_linear_104_402" x1="46.6932" y1="283.26" x2="220.459" y2="-206.563" gradientUnits="userSpaceOnUse">
            <stop stop-color="white" stop-opacity="0.12" />
            <stop offset="1" stop-color="white" stop-opacity="0.38" />
        </linearGradient>
        <clipPath id="clip0_104_402">
            <rect width="303.853" height="197.916" fill="white" />
        </clipPath>
    </defs>
</svg>
    