<svg width="80" height="80" viewBox="0 0 80 80" fill="none" xmlns="http://www.w3.org/2000/svg">
    <rect width="80" height="80" rx="40" fill="black" />
    <path d="M49.3388 20.0007C56.1408 20.0007 59.9808 23.8587 60.0008 30.6607V49.3407C60.0008 56.1407 56.1408 60.0007 49.3388 60.0007H30.6608C23.8588 60.0007 20.0008 56.1407 20.0008 49.3407V30.6607C20.0008 23.8587 23.8588 20.0007 30.6608 20.0007H49.3388ZM41.0008 28.2607C40.4388 27.9207 39.7588 27.9207 39.2208 28.2607C38.6788 28.5987 38.3808 29.2207 38.4388 29.8407V50.2207C38.5408 51.0807 39.2588 51.7207 40.0988 51.7207C40.9608 51.7207 41.6788 51.0807 41.7588 50.2207V29.8407C41.8388 29.2207 41.5408 28.5987 41.0008 28.2607ZM31.6608 34.8207C31.1208 34.4807 30.4388 34.4807 29.9008 34.8207C29.3588 35.1607 29.0608 35.7787 29.1208 36.4007V50.2207C29.1988 51.0807 29.9188 51.7207 30.7788 51.7207C31.6408 51.7207 32.3588 51.0807 32.4388 50.2207V36.4007C32.5008 35.7787 32.1988 35.1607 31.6608 34.8207ZM50.1788 42.0807C49.6408 41.7407 48.9608 41.7407 48.4008 42.0807C47.8588 42.4207 47.5608 43.0187 47.6408 43.6607V50.2207C47.7208 51.0807 48.4388 51.7207 49.3008 51.7207C50.1408 51.7207 50.8588 51.0807 50.9608 50.2207V43.6607C51.0188 43.0187 50.7208 42.4207 50.1788 42.0807Z" fill="white" />
</svg>
    