<svg width="125" height="30" viewBox="0 0 125 30" fill="none" xmlns="http://www.w3.org/2000/svg">
<path d="M27.2594 10.5295C27.6194 10.5295 27.7394 10.6595 27.7394 11.0095V18.9295H31.8094C32.1594 18.9295 32.2894 19.0595 32.2894 19.4095V20.1095C32.2894 20.4595 32.1594 20.5895 31.8094 20.5895H26.4494C26.0994 20.5895 25.9594 20.4595 25.9594 20.1095V11.0095C25.9594 10.6595 26.0994 10.5295 26.4494 10.5295H27.2594Z" fill="#696871"/>
<path fill-rule="evenodd" clip-rule="evenodd" d="M39.8394 10.3196C37.2994 10.3196 35.8394 11.7096 35.8394 14.0196V17.0996C35.8394 19.4096 37.3094 20.7996 39.8394 20.7996C42.3694 20.7996 43.8394 19.4096 43.8394 17.0996V14.0196C43.8394 11.7096 42.3794 10.3196 39.8394 10.3196ZM39.8894 12.0196C41.3494 12.0196 42.1594 12.7196 42.1594 14.0196V17.1196C42.1594 18.3996 41.3494 19.1196 39.8894 19.1196C38.4294 19.1196 37.6294 18.4296 37.6294 17.1196V14.0196C37.6294 12.7296 38.4294 12.0196 39.8894 12.0196Z" fill="#696871"/>
<path d="M55.7494 15.0795C56.1394 15.0795 56.2294 15.2095 56.2294 15.5595V17.4595C56.2509 18.366 55.8612 19.2335 55.1694 19.8195C54.3211 20.495 53.2515 20.8302 52.1694 20.7595C49.5794 20.7595 48.1694 19.3695 48.1694 17.0595V13.9595C48.1694 11.6795 49.6294 10.2795 52.1694 10.2795C54.1694 10.2795 55.4694 11.0695 56.0194 12.6495C56.0818 12.7699 56.0837 12.9126 56.0247 13.0347C55.9656 13.1567 55.8525 13.2438 55.7194 13.2695L54.9394 13.5395C54.5994 13.6595 54.4594 13.5895 54.3394 13.2395C53.9986 12.3608 53.105 11.8254 52.1694 11.9395C50.6994 11.9395 49.8994 12.6495 49.8994 13.9395V17.1195C49.8994 18.4295 50.7094 19.1195 52.1694 19.1195C53.6294 19.1195 54.5294 18.4495 54.5294 17.4695V16.7295H52.3594C51.9994 16.7295 51.8694 16.5895 51.8694 16.2395V15.5595C51.8694 15.2095 51.9994 15.0795 52.3594 15.0795H55.7494Z" fill="#696871"/>
<path fill-rule="evenodd" clip-rule="evenodd" d="M64.3594 10.3196C61.8194 10.3196 60.3594 11.7096 60.3594 14.0196V17.0996C60.3594 19.4096 61.8294 20.7996 64.3594 20.7996C66.8894 20.7996 68.3594 19.4096 68.3594 17.0996V14.0196C68.3594 11.7096 66.8994 10.3196 64.3594 10.3196ZM64.4094 12.0196C65.8594 12.0196 66.6694 12.7196 66.6694 14.0196V17.1196C66.6694 18.3996 65.8694 19.1196 64.4094 19.1196C62.9494 19.1196 62.1394 18.4296 62.1394 17.1196V14.0196C62.1394 12.7296 62.9594 12.0196 64.4094 12.0196Z" fill="#696871"/>
<path d="M73.0694 10.8195C73.0694 10.5995 73.1394 10.5295 73.3594 10.5295H73.8194C74.0394 10.5295 74.0894 10.5995 74.0894 10.8195V20.2995C74.0894 20.5195 74.0894 20.5895 73.8194 20.5895H73.3594C73.1394 20.5895 73.0694 20.5195 73.0694 20.2995V10.8195Z" fill="#696871"/>
<path fill-rule="evenodd" clip-rule="evenodd" d="M86.3394 13.6695C86.3394 11.9354 84.9336 10.5295 83.1994 10.5295H79.4694C79.2594 10.5295 79.1794 10.5995 79.1794 10.8195V20.2995C79.1794 20.5195 79.2594 20.5895 79.4694 20.5895H79.9394C80.1494 20.5895 80.1994 20.5195 80.1994 20.2995V16.8095H83.1994C84.9336 16.8095 86.3394 15.4037 86.3394 13.6695ZM84.9973 14.7295C84.6079 15.404 83.8883 15.8195 83.1094 15.8195H80.1094V11.4595H83.1094C83.8883 11.4595 84.6079 11.875 84.9973 12.5495C85.3868 13.224 85.3868 14.055 84.9973 14.7295Z" fill="#696871"/>
<path d="M94.1494 10.3295C95.7349 10.1546 97.2472 11.0408 97.8694 12.5095C97.9494 12.6695 97.8694 12.7995 97.7094 12.8795L97.2694 13.0795C97.0894 13.1495 97.0194 13.1395 96.9094 12.9495C96.4445 11.8603 95.3283 11.1971 94.1494 11.3095C92.4594 11.3095 91.5394 11.9795 91.5394 13.1795C91.5192 13.9379 92.0611 14.595 92.8094 14.7195C93.3473 14.8949 93.9049 15.0024 94.4694 15.0395C95.1528 15.076 95.8269 15.2142 96.4694 15.4495C97.4848 15.7708 98.1358 16.7599 98.0294 17.8195C98.0294 19.6895 96.6694 20.8195 94.1694 20.8195C92.4797 21.0128 90.8843 20.0006 90.3394 18.3895C90.3037 18.3174 90.3021 18.233 90.3349 18.1595C90.3678 18.086 90.4318 18.031 90.5094 18.0095L90.9494 17.8495C91.0195 17.8209 91.0984 17.823 91.1668 17.8553C91.2353 17.8877 91.287 17.9472 91.3094 18.0195C91.7685 19.1788 92.9256 19.9071 94.1694 19.8195C96.0594 19.8195 96.9894 19.1595 96.9894 17.8195C97.0258 17.0921 96.5309 16.445 95.8194 16.2895C95.302 16.1352 94.7684 16.0412 94.2294 16.0095L93.1494 15.8695C92.8114 15.7978 92.4776 15.7076 92.1494 15.5995C91.8253 15.5016 91.5231 15.342 91.2594 15.1295C90.7224 14.6432 90.4293 13.9434 90.4594 13.2195C90.5294 11.4695 91.8394 10.3295 94.1494 10.3295Z" fill="#696871"/>
<path d="M103.419 17.1695C103.508 18.6375 104.724 19.7829 106.194 19.7829C107.665 19.7829 108.881 18.6375 108.969 17.1695V10.8195C108.969 10.5995 109.039 10.5295 109.259 10.5295H109.719C109.939 10.5295 110.009 10.5995 110.009 10.8195V17.1595C110.009 19.4295 108.669 20.7995 106.199 20.7995C103.729 20.7995 102.389 19.4295 102.389 17.1595V10.8195C102.389 10.5995 102.459 10.5295 102.669 10.5295H103.139C103.349 10.5295 103.419 10.5995 103.419 10.8195V17.1695Z" fill="#696871"/>
<path d="M123.809 10.5296C124.029 10.5296 124.099 10.5996 124.099 10.8196V20.2996C124.099 20.5196 124.029 20.5896 123.809 20.5896H123.389C123.179 20.5896 123.109 20.5196 123.109 20.2996V14.5296C123.109 13.69 123.166 12.8514 123.279 12.0196H123.219C122.907 12.7803 122.543 13.5187 122.129 14.2296L119.979 18.0196C119.926 18.1542 119.794 18.2416 119.649 18.2396H119.369C119.222 18.2403 119.089 18.1539 119.029 18.0196L116.849 14.1896C116.462 13.4888 116.128 12.7601 115.849 12.0096H115.789C115.892 12.8491 115.945 13.6938 115.949 14.5396V20.2996C115.949 20.5196 115.879 20.5896 115.659 20.5896H115.269C115.049 20.5896 114.979 20.5196 114.979 20.2996V10.8196C114.979 10.5996 115.049 10.5296 115.269 10.5296H115.629C115.798 10.5139 115.958 10.606 116.029 10.7596L119.529 16.9796L123.009 10.8196C123.119 10.6096 123.179 10.5796 123.399 10.5796L123.809 10.5296Z" fill="#696871"/>
<path fill-rule="evenodd" clip-rule="evenodd" d="M2.83941 1.50959V21.8196C2.83941 22.0689 2.74038 22.308 2.56409 22.4843C2.38781 22.6606 2.14871 22.7596 1.89941 22.7596H1.67941C1.16026 22.7596 0.73941 22.3387 0.73941 21.8196V1.50959C0.744892 0.994352 1.16414 0.579561 1.67941 0.57959H1.89941C2.41468 0.579561 2.83393 0.994352 2.83941 1.50959ZM14.3698 14.3842C14.5682 14.1952 14.8356 14.0959 15.1094 14.1096L15.0594 14.1296C15.3504 14.0999 15.6398 14.1991 15.8514 14.4011C16.063 14.603 16.1755 14.8875 16.1594 15.1796V20.6796C16.1594 21.2595 15.6893 21.7296 15.1094 21.7296C14.5295 21.7296 14.0594 21.2595 14.0594 20.6796V15.1096C14.0591 14.8355 14.1713 14.5732 14.3698 14.3842ZM17.3694 17.2796C17.3694 16.7273 17.8171 16.2796 18.3694 16.2796C18.6588 16.253 18.9454 16.3536 19.1546 16.5552C19.3639 16.7568 19.4752 17.0394 19.4594 17.3296V18.5396C19.4594 19.1167 18.9915 19.5846 18.4144 19.5846C17.8373 19.5846 17.3694 19.1167 17.3694 18.5396V17.2796ZM9.46941 25.5996V18.3696C9.1567 18.6073 8.77205 18.7308 8.37941 18.7196C8.01924 18.7107 7.67037 18.5921 7.37941 18.3796V25.5996C7.37941 26.1767 7.84727 26.6446 8.42441 26.6446C9.00155 26.6446 9.46941 26.1767 9.46941 25.5996ZM5.10941 21.1096C4.74958 21.0988 4.40124 20.9804 4.10941 20.7696V28.0196C4.10941 28.5995 4.57951 29.0696 5.15941 29.0696C5.73931 29.0696 6.20941 28.5995 6.20941 28.0196V20.8196C5.88286 21.0307 5.49757 21.1322 5.10941 21.1096ZM11.7894 16.2496C11.4128 16.247 11.0461 16.1283 10.7394 15.9096V23.1796C10.7394 23.7595 11.2095 24.2296 11.7894 24.2296C12.3693 24.2296 12.8394 23.7595 12.8394 23.1796V15.9196C12.5222 16.1559 12.1349 16.2791 11.7394 16.2696L11.7894 16.2496ZM5.21941 20.3396H4.99941C4.48026 20.3396 4.05941 19.9187 4.05941 19.3996V3.92959C4.06489 3.41435 4.48414 2.99956 4.99941 2.99959H5.21941C5.73468 2.99956 6.15393 3.41435 6.15941 3.92959V19.4196C6.15941 19.9387 5.73856 20.3596 5.21941 20.3596V20.3396ZM8.29941 17.9596H8.52941C9.04304 17.9596 9.45941 17.5432 9.45941 17.0296V6.32959C9.45944 5.81432 9.04465 5.39507 8.52941 5.38959H8.29941C8.05102 5.38958 7.81294 5.48893 7.63824 5.66551C7.46354 5.84208 7.36674 6.08121 7.36941 6.32959V17.0296C7.36941 17.5432 7.78579 17.9596 8.29941 17.9596ZM11.8394 15.5096H11.6294C11.1141 15.5096 10.6949 15.0948 10.6894 14.5796V8.81959C10.6728 8.56006 10.7645 8.30526 10.9426 8.11577C11.1207 7.92629 11.3694 7.81906 11.6294 7.81959H11.8494C12.3686 7.81959 12.7894 8.24044 12.7894 8.75959V14.5596C12.7921 14.8106 12.6942 15.0523 12.5177 15.2307C12.3411 15.4092 12.1005 15.5096 11.8494 15.5096H11.8394ZM14.9394 13.3596H15.1594H15.1694C15.6846 13.3541 16.0994 12.9349 16.0994 12.4196V10.9296C16.0939 10.4144 15.6747 9.99956 15.1594 9.99959H14.9394C14.4241 9.99956 14.0049 10.4144 13.9994 10.9296V12.4196C13.9994 12.9387 14.4203 13.3596 14.9394 13.3596Z" fill="#696871"/>
</svg>
