<svg width="101" height="48" viewBox="0 0 101 48" fill="none" xmlns="http://www.w3.org/2000/svg">
<path d="M0.319427 28.6101H3.31943V43.3201H0.319427V28.6101Z" fill="#696871"/>
<path fill-rule="evenodd" clip-rule="evenodd" d="M8.34895 33.3394C6.35385 34.1691 5.05537 36.1194 5.05941 38.2801C5.04588 39.6995 5.60446 41.0646 6.60915 42.0675C7.61384 43.0703 8.97999 43.6263 10.3994 43.6101C12.5602 43.6101 14.5079 42.3079 15.3339 40.3113C16.1598 38.3147 15.7011 36.017 14.1718 34.4906C12.6425 32.9642 10.344 32.5098 8.34895 33.3394ZM10.3604 36.0204C11.6337 35.9986 12.6865 37.0071 12.7194 38.2801C12.7532 38.9106 12.5217 39.5264 12.081 39.9785C11.6403 40.4306 11.0305 40.6778 10.3994 40.6601C9.12602 40.6597 8.09097 39.6329 8.08027 38.3596C8.06958 37.0862 9.08724 36.0422 10.3604 36.0204Z" fill="#696871"/>
<path fill-rule="evenodd" clip-rule="evenodd" d="M27.7994 42.8201V33.24L24.8494 33.27V34.27C24.1311 33.3939 23.0412 32.9083 21.9094 32.96C19.0817 32.96 16.7894 35.2524 16.7894 38.08C16.7894 40.9077 19.0817 43.2 21.9094 43.2C23.0421 43.2566 24.134 42.7701 24.8494 41.89V42.8201C24.9075 43.4381 24.6754 44.0481 24.221 44.471C23.7667 44.894 23.1417 45.0821 22.5294 44.9801C21.59 45.0578 20.6983 44.5544 20.2794 43.71L17.6994 45.2C18.7079 46.8415 20.5482 47.7829 22.4694 47.64C25.1494 47.64 27.7994 46.2101 27.7994 42.8201ZM23.4146 35.7558C24.3223 36.1651 24.8902 37.0851 24.8494 38.08C24.868 38.7239 24.6134 39.3455 24.1485 39.7913C23.6836 40.2371 23.0519 40.4655 22.4094 40.4201C21.4136 40.4192 20.5182 39.8133 20.1472 38.8892C19.7761 37.9651 20.0039 36.9083 20.7226 36.219C21.4413 35.5297 22.5068 35.3464 23.4146 35.7558Z" fill="#696871"/>
<path fill-rule="evenodd" clip-rule="evenodd" d="M32.8189 33.3394C30.8238 34.1691 29.5254 36.1194 29.5294 38.2801C29.5159 39.6995 30.0745 41.0646 31.0792 42.0675C32.0838 43.0703 33.45 43.6263 34.8694 43.6101C37.0302 43.6101 38.9779 42.3079 39.8039 40.3113C40.6298 38.3147 40.1711 36.017 38.6418 34.4906C37.1125 32.9642 34.814 32.5098 32.8189 33.3394ZM34.8304 36.0204C36.1037 35.9986 37.1565 37.0071 37.1894 38.2801H37.1694C37.2029 38.907 36.974 39.5196 36.5378 39.971C36.1015 40.4225 35.4971 40.6721 34.8694 40.6601C33.596 40.6597 32.561 39.6329 32.5503 38.3596C32.5396 37.0862 33.5572 36.0422 34.8304 36.0204Z" fill="#696871"/>
<path fill-rule="evenodd" clip-rule="evenodd" d="M43.4194 28.72C42.4143 28.72 41.5994 29.5348 41.5994 30.54C41.6049 31.5429 42.4165 32.3545 43.4194 32.36C44.4246 32.36 45.2394 31.5451 45.2394 30.54C45.2394 29.5348 44.4246 28.72 43.4194 28.72ZM44.9094 33.24H41.9094V43.32H44.9094V33.24Z" fill="#696871"/>
<path fill-rule="evenodd" clip-rule="evenodd" d="M56.6935 41.9458C57.5964 40.9452 58.0629 39.6258 57.9894 38.28C58.0602 36.9359 57.5924 35.619 56.6898 34.6206C55.7871 33.6222 54.5238 33.0246 53.1794 32.96C52.0467 32.9056 50.948 33.356 50.1794 34.19V33.24H47.1794V47.38H50.1794V42.38C50.948 43.2139 52.0467 43.6644 53.1794 43.61C54.5257 43.5454 55.7905 42.9464 56.6935 41.9458ZM52.57 35.9408C53.8796 35.9298 54.9563 36.9707 54.9894 38.28H54.9694C55.017 38.9423 54.7759 39.5929 54.3083 40.0643C53.8407 40.5358 53.1921 40.7821 52.5294 40.74C51.2202 40.7068 50.1792 39.6301 50.1903 38.3205C50.2014 37.0108 51.2603 35.9519 52.57 35.9408Z" fill="#696871"/>
<path d="M67.3294 40.3001C67.3294 42.6201 65.3294 43.6101 63.1294 43.6101C61.3315 43.7692 59.6173 42.8192 58.7994 41.2101L61.4194 39.7201C61.6386 40.4696 62.3505 40.965 63.1294 40.9101C63.8594 40.9101 64.2194 40.6801 64.2194 40.2801C64.2194 39.1701 59.2194 39.7601 59.2194 36.2801C59.2194 34.0801 61.0794 32.9701 63.2194 32.9701C64.8276 32.9212 66.3358 33.748 67.1594 35.1301L64.5294 36.5101C64.2921 35.9705 63.7589 35.6216 63.1694 35.6201C62.6494 35.6201 62.3294 35.8201 62.3294 36.1901C62.3694 37.3401 67.3294 36.5701 67.3294 40.3001Z" fill="#696871"/>
<path d="M78.3694 33.24V43.32H75.3694V42.38C74.6615 43.2272 73.5909 43.6844 72.4894 43.61C70.4894 43.61 68.7194 42.16 68.7194 39.43V33.24H71.7194V38.99C71.666 39.4862 71.8387 39.9802 72.1897 40.335C72.5406 40.6899 73.0326 40.868 73.5294 40.82C74.6294 40.82 75.3994 40.18 75.3994 38.75V33.24H78.3694Z" fill="#696871"/>
<path d="M95.7094 37.14V43.32H92.7094V37.4C92.7094 36.4 92.2194 35.74 91.2594 35.74C90.2994 35.74 89.6794 36.45 89.6794 37.64V43.32H86.6794V37.4C86.6794 36.4 86.1994 35.74 85.2294 35.74C84.2594 35.74 83.6594 36.45 83.6594 37.64V43.32H80.6594V33.24H83.6594V34.17C84.2965 33.3355 85.3126 32.8801 86.3594 32.96C87.4119 32.909 88.4141 33.4138 88.9994 34.29C89.6797 33.3746 90.7823 32.8724 91.9194 32.96C94.1994 32.96 95.7094 34.62 95.7094 37.14Z" fill="#696871"/>
<path d="M98.2694 33.18C99.5065 33.18 100.509 32.1771 100.509 30.94C100.509 29.7028 99.5065 28.7 98.2694 28.7C97.0323 28.7 96.0294 29.7028 96.0294 30.94C96.0294 32.1771 97.0323 33.18 98.2694 33.18Z" fill="#696871"/>
<path d="M34.2694 20.98C40.0629 20.98 44.7594 16.2835 44.7594 10.49C44.7594 4.69653 40.0629 0 34.2694 0C28.476 0 23.7794 4.69653 23.7794 10.49C23.7794 16.2835 28.476 20.98 34.2694 20.98Z" fill="#696871"/>
<path d="M57.7194 20.98C63.5129 20.98 68.2094 16.2835 68.2094 10.49C68.2094 4.69653 63.5129 0 57.7194 0C51.926 0 47.2294 4.69653 47.2294 10.49C47.2294 16.2835 51.926 20.98 57.7194 20.98Z" fill="#696871"/>
<rect x="0.339417" width="20.97" height="20.97" fill="#696871"/>
</svg>
