<svg width="119" height="28" viewBox="0 0 119 28" fill="none" xmlns="http://www.w3.org/2000/svg">
<path fill-rule="evenodd" clip-rule="evenodd" d="M70.879 7.2013C70.3125 7.45236 69.9533 8.02035 69.9694 8.6398V8.6598C69.9656 9.06672 70.1319 9.45673 70.4281 9.73581C70.7242 10.0149 71.1234 10.1577 71.5294 10.1298C72.1489 10.1174 72.6998 9.73261 72.9246 9.15516C73.1494 8.57772 73.0037 7.92169 72.5556 7.49369C72.1075 7.06569 71.4455 6.95025 70.879 7.2013ZM37.3994 7.8898H34.3994V20.0198H37.3994V7.8898ZM43.2694 10.6498C40.4294 10.6498 38.5894 12.4398 38.5894 15.4398C38.5894 18.4898 40.3894 20.2398 43.2694 20.2398C46.1494 20.2398 47.9494 18.4398 47.9494 15.4398C47.9494 12.4398 46.1094 10.6498 43.2694 10.6498ZM44.9394 15.4398C44.9394 13.7898 44.2894 12.8198 43.2694 12.8198C42.2494 12.8198 41.6094 13.8198 41.6094 15.4398C41.6094 17.0598 42.2394 18.0398 43.2694 18.0398C44.2994 18.0398 44.9394 17.1198 44.9394 15.4498V15.4398ZM51.9594 20.6098H49.0794V20.6198C49.2494 22.2798 50.8994 23.4698 53.5494 23.4698C56.3994 23.4698 58.3294 22.1098 58.3294 19.9198V10.8198H55.3294V12.4898C54.8669 11.3846 53.7666 10.6829 52.5694 10.7298C50.2694 10.7298 48.8894 12.5398 48.8894 15.4098C48.8894 18.2798 50.3394 19.9498 52.5294 19.9498C53.6891 20.0128 54.7703 19.3633 55.2594 18.3098H55.3194V19.9898C55.3194 20.8898 54.7194 21.5098 53.5794 21.5098C52.8997 21.6012 52.2408 21.2351 51.9594 20.6098ZM55.3294 15.4298C55.3294 13.9698 54.6594 13.0498 53.5994 13.0498C52.5394 13.0498 51.8894 13.9598 51.8894 15.4298C51.8894 16.8998 52.5294 17.7298 53.5994 17.7298C54.6694 17.7298 55.3294 16.9198 55.3294 15.4398V15.4298ZM64.1394 10.6398C61.2994 10.6398 59.4594 12.4298 59.4594 15.4298V15.4398C59.4594 18.4898 61.2494 20.2298 64.1394 20.2298C67.0294 20.2298 68.8294 18.4298 68.8294 15.4298C68.8294 12.4298 66.9794 10.6398 64.1394 10.6398ZM65.8094 15.4298C65.8094 13.7798 65.1594 12.8098 64.1394 12.8098C63.1194 12.8098 62.5294 13.8198 62.5294 15.4498C62.5294 17.0798 63.1594 18.0498 64.1794 18.0498C65.1994 18.0498 65.8094 17.1198 65.8094 15.4498V15.4298ZM69.9694 10.8398H72.9694V20.0198H69.9694V10.8398ZM80.2494 20.1398C82.5294 20.1398 83.8594 18.4298 83.8594 15.4298L83.8994 15.4498C83.8994 12.4498 82.5294 10.7298 80.2294 10.6898C79.0226 10.6359 77.9112 11.3435 77.4494 12.4598H77.3894V10.8198H74.3894V22.9598H77.3894V18.4398H77.4494C77.9336 19.5378 79.0518 20.2167 80.2494 20.1398ZM80.8594 15.4298C80.8594 13.9698 80.1894 13.0398 79.1394 13.0398C78.0894 13.0398 77.4194 13.9798 77.4094 15.4298C77.3994 16.8798 78.0894 17.8098 79.1394 17.8098C80.1894 17.8098 80.8594 16.8998 80.8594 15.4498V15.4298ZM93.0794 13.6998C93.0094 11.8098 91.4994 10.6298 89.0094 10.6298V10.6498C86.5294 10.6498 84.9194 11.8198 84.8994 13.6198C84.8994 15.0198 85.8394 15.9698 87.6294 16.3398L89.3594 16.7098C90.0794 16.8598 90.3594 16.9598 90.3594 17.4398C90.3594 17.9198 89.9594 18.2098 89.0794 18.2098C88.1994 18.2098 87.6594 17.8098 87.5694 17.1298H84.6794C84.8094 18.9998 86.4794 20.2198 89.0294 20.2198C91.5794 20.2198 93.3094 18.9998 93.3094 17.0998C93.3094 15.7098 92.5294 14.9698 90.6994 14.5798L88.7794 14.1898C88.1094 14.0498 87.7794 13.8998 87.7794 13.4298C87.7794 12.9598 88.1494 12.6398 88.9794 12.6398C89.8094 12.6398 90.3494 13.0498 90.3494 13.6998H93.0794ZM103.319 19.9998H100.429V18.2898H100.369C100.042 19.4727 98.9348 20.2678 97.7094 20.1998C96.7872 20.2522 95.8875 19.9023 95.2431 19.2406C94.5986 18.5789 94.2726 17.6703 94.3494 16.7498V10.8198H97.3494V16.0598C97.3494 17.1498 97.9094 17.7298 98.8394 17.7298C99.2806 17.7307 99.7007 17.5411 99.9919 17.2097C100.283 16.8782 100.417 16.4372 100.359 15.9998V10.8198H103.359L103.319 19.9998ZM107.669 10.8198H104.769L104.719 20.0198H107.719V14.6098C107.674 14.2294 107.793 13.8475 108.047 13.5608C108.301 13.2741 108.666 13.1099 109.049 13.1098C109.869 13.1098 110.319 13.6098 110.319 14.5298V20.0198H113.169V14.5898C113.12 14.214 113.236 13.8353 113.487 13.5515C113.739 13.2677 114.1 13.1066 114.479 13.1098C115.319 13.1098 115.769 13.5698 115.769 14.5698V20.0198H118.769V13.7698C118.829 12.9464 118.537 12.1363 117.965 11.5412C117.393 10.9461 116.594 10.6221 115.769 10.6498C114.483 10.5945 113.323 11.4175 112.949 12.6498H112.889C112.69 11.4206 111.581 10.5504 110.339 10.6498C109.129 10.6274 108.057 11.4247 107.729 12.5898H107.669V10.8198Z" fill="#696871"/>
<path fill-rule="evenodd" clip-rule="evenodd" d="M24.0094 5.21972C24.8269 6.19166 25.5005 7.27608 26.0094 8.43972C26.7507 10.1363 27.132 11.9682 27.1294 13.8197C27.1239 21.2931 21.0727 27.3532 13.5994 27.3697C11.8605 27.3688 10.1384 27.0291 8.52939 26.3697C7.38174 25.9137 6.30439 25.2976 5.32939 24.5397C1.18237 21.3793 -0.77959 16.1171 0.286103 11.0132C1.35179 5.90919 5.25548 1.87176 10.3207 0.634802C15.3858 -0.60216 20.7111 1.18148 24.0094 5.21972ZM18.1094 4.00972C16.6936 3.35086 15.1509 3.00955 13.5894 3.00972L13.5994 2.98972C9.89642 2.98696 6.45021 4.8815 4.46836 8.00947C2.4865 11.1374 2.24534 15.0627 3.82939 18.4097C4.28108 17.9352 4.55943 17.3221 4.61939 16.6697C4.9831 14.1571 6.9568 12.1834 9.46939 11.8197C10.887 11.6912 12.0191 10.5841 12.1794 9.16972C12.5431 6.65714 14.5168 4.68343 17.0294 4.31972C17.4012 4.26308 17.7642 4.15889 18.1094 4.00972ZM5.31939 20.8197C5.35939 20.7831 5.39939 20.7475 5.4394 20.7119L5.43946 20.7119C5.51943 20.6408 5.59941 20.5697 5.67939 20.4897C6.56904 19.6272 7.1401 18.4886 7.29939 17.2597C7.36397 16.569 7.67239 15.9238 8.16939 15.4397C8.64763 14.9419 9.29136 14.636 9.97939 14.5797C12.492 14.216 14.4657 12.2423 14.8294 9.72972C14.8726 9.00724 15.1827 8.32656 15.6994 7.81972C16.1894 7.33157 16.8393 7.03683 17.5294 6.98972C18.6533 6.83509 19.7015 6.33544 20.5294 5.55972C21.472 6.34179 22.2707 7.28262 22.8894 8.33972C22.8514 8.39107 22.8078 8.43803 22.7594 8.47972C22.2821 8.98192 21.6392 9.29448 20.9494 9.35972C18.4337 9.71716 16.4568 11.694 16.0994 14.2097C15.9541 15.6291 14.8293 16.7497 13.4094 16.8897C10.8898 17.2506 8.90579 19.2224 8.52939 21.7397C8.47557 22.2285 8.30773 22.6977 8.03939 23.1097C7.01338 22.5006 6.09447 21.7269 5.31939 20.8197ZM10.5894 24.2597C11.5648 24.5394 12.5747 24.6808 13.5894 24.6797V24.6297C16.9385 24.6167 20.0927 23.0535 22.1315 20.3965C24.1703 17.7394 24.8637 14.288 24.0094 11.0497C23.2502 11.5865 22.3714 11.9298 21.4494 12.0497C20.0334 12.1942 18.9139 13.3137 18.7694 14.7297C18.4046 17.2455 16.4259 19.2201 13.9094 19.5797C12.4934 19.7242 11.3739 20.8437 11.2294 22.2597C11.14 22.9599 10.923 23.6377 10.5894 24.2597Z" fill="#696871"/>
</svg>
