<svg width="127" height="30" viewBox="0 0 127 30" fill="none" xmlns="http://www.w3.org/2000/svg">
<path fill-rule="evenodd" clip-rule="evenodd" d="M75.2418 8.3356C74.6318 8.61164 74.2508 9.23079 74.2794 9.89974L74.2994 9.90974C74.3046 10.3323 74.4789 10.7352 74.7834 11.0284C75.0878 11.3215 75.4969 11.4805 75.9194 11.4697C76.589 11.4691 77.1909 11.0616 77.4401 10.4401C77.6893 9.81863 77.5357 9.10809 77.052 8.64507C76.5684 8.18206 75.8518 8.05956 75.2418 8.3356ZM39.2494 9.07974H36.0394V22.0797H39.2494V9.07974ZM45.5294 12.0397C42.5294 12.0397 40.5294 13.9697 40.5294 17.1897C40.5294 20.4797 42.4594 22.3597 45.5294 22.3597C48.5994 22.3597 50.5294 20.4097 50.5294 17.1897C50.5294 13.9697 48.5294 12.0397 45.5294 12.0397ZM47.3494 17.1897C47.3494 15.4197 46.6594 14.3797 45.5594 14.3797C44.4594 14.3797 43.7794 15.3797 43.7794 17.1897C43.7794 18.9997 44.4594 19.9897 45.5594 19.9897C46.6594 19.9897 47.3694 18.9997 47.3694 17.1997L47.3494 17.1897ZM54.9094 22.7497H51.8094L51.8294 22.7597C52.0094 24.5497 53.7894 25.8197 56.5694 25.8297C59.6294 25.8297 61.7094 24.3597 61.7094 22.0097V12.2697H58.5294V13.8825C57.9865 12.7955 56.8463 12.1241 55.6194 12.1897C53.1094 12.1897 51.6194 14.1097 51.6194 17.1897C51.6194 20.2697 53.1794 22.0597 55.5294 22.0597C56.7873 22.1519 57.9727 21.4655 58.5194 20.3307V22.1097C58.5194 23.0897 57.8794 23.7497 56.6494 23.7497C55.9108 23.8444 55.1995 23.4356 54.9094 22.7497ZM58.5294 17.1897C58.5294 15.6197 57.8094 14.6297 56.6694 14.6297C55.5294 14.6297 54.8294 15.6297 54.8294 17.1897C54.8294 18.7497 55.5194 19.6697 56.6694 19.6697C57.8194 19.6697 58.5294 18.8197 58.5294 17.1897ZM67.9794 12.0397C64.9794 12.0397 62.9794 13.9697 62.9794 17.1897H62.9994C62.9994 20.4797 64.9194 22.3597 67.9794 22.3597C71.0394 22.3597 72.9794 20.4097 72.9794 17.1897C72.9794 13.9697 70.9794 12.0397 67.9794 12.0397ZM69.7994 17.1897C69.7994 15.4197 69.0994 14.3797 68.0094 14.3797C66.9194 14.3797 66.2294 15.3797 66.2294 17.1897C66.2294 18.9997 66.9094 19.9897 68.0094 19.9897C69.1094 19.9897 69.8194 18.9997 69.8194 17.1997L69.7994 17.1897ZM74.2794 12.2597H77.5294V22.1197H74.3294L74.2794 12.2597ZM85.3294 22.2597C87.7794 22.2597 89.2194 20.3997 89.2194 17.1897L89.2794 17.1997C89.2794 13.9797 87.8294 12.1297 85.3094 12.1497C84.009 12.0879 82.8093 12.8477 82.3094 14.0497H82.2494V12.2897H79.0594V25.2897H82.2694V20.4297H82.3294C82.8469 21.6083 84.0447 22.339 85.3294 22.2597ZM85.9494 17.1897C85.9494 15.6297 85.2194 14.6197 84.0894 14.6197C82.9594 14.6197 82.2494 15.6197 82.2394 17.1897C82.2294 18.7597 82.9594 19.7497 84.0894 19.7497C85.2194 19.7497 86.0094 18.8197 86.0094 17.1997L85.9494 17.1897ZM99.0794 15.3397C99.0594 13.2997 97.3894 12.0297 94.6994 12.0297L94.7594 12.0397C92.0494 12.0397 90.3694 13.2897 90.3094 15.2497C90.3094 16.7597 91.3194 17.7697 93.2494 18.1797L95.1094 18.5697C95.8794 18.7297 96.1794 18.8197 96.1794 19.3497C96.1794 19.8797 95.7394 20.1797 94.7994 20.1797C93.8594 20.1797 93.2794 19.7497 93.1894 19.0197H90.0794C90.2094 21.0297 91.9994 22.3497 94.7494 22.3497C97.4994 22.3497 99.3494 20.9897 99.3494 18.9897C99.3494 17.4997 98.5494 16.6997 96.5494 16.2797L94.4894 15.8597C93.7494 15.7097 93.3794 15.5497 93.3794 15.0397C93.3794 14.5297 93.7994 14.1897 94.6794 14.1897C95.5594 14.1897 96.1494 14.6297 96.1494 15.3397H99.0794ZM110.099 22.1097H106.989V20.2597H106.929C106.571 21.5308 105.378 22.3828 104.059 22.3097C103.082 22.3416 102.137 21.9545 101.463 21.2459C100.789 20.5373 100.449 19.5745 100.529 18.5997V12.2697H103.739V17.9097C103.739 19.0697 104.349 19.6997 105.349 19.6997C105.824 19.6962 106.274 19.4871 106.583 19.1265C106.892 18.766 107.029 18.2893 106.959 17.8197V12.2697H110.159L110.099 22.1097ZM114.769 12.2597H111.649L111.669 22.1197H114.879V16.2997C114.827 15.8904 114.955 15.4786 115.229 15.1701C115.503 14.8616 115.897 14.6865 116.309 14.6897C117.189 14.6897 117.679 15.2197 117.679 16.2197V22.1197H120.739V16.2797C120.684 15.875 120.808 15.4663 121.079 15.1607C121.35 14.855 121.741 14.683 122.149 14.6897C123.059 14.6897 123.529 15.2497 123.529 16.2497V22.1197H126.759V15.4297C126.826 14.5437 126.511 13.6715 125.894 13.0319C125.277 12.3923 124.417 12.0459 123.529 12.0797C122.171 12.0162 120.94 12.8738 120.529 14.1697H120.389C120.152 12.8706 118.965 11.9653 117.649 12.0797C116.349 12.0532 115.194 12.908 114.839 14.1597H114.769V12.2597Z" fill="#696871"/>
<path fill-rule="evenodd" clip-rule="evenodd" d="M29.6894 9.9297C29.6896 5.85609 27.1896 2.19996 23.3935 0.722219C19.5974 -0.755525 15.2835 0.248092 12.5294 3.2497H0.0494385V29.5897H26.3994V17.2797C28.4911 15.4088 29.6875 12.736 29.6894 9.9297ZM24.6194 9.9297C24.6235 11.8801 23.4517 13.6407 21.6509 14.3899C19.8501 15.1391 17.7753 14.7292 16.3947 13.3515C15.0142 11.9738 14.5999 9.89982 15.3454 8.09748C16.0908 6.29514 17.849 5.1197 19.7994 5.1197C22.4576 5.11969 24.6139 7.27159 24.6194 9.9297ZM5.11944 24.5197H21.3294V19.6897C20.8237 19.7735 20.3121 19.817 19.7994 19.8197C14.3396 19.8142 9.91495 15.3895 9.90944 9.9297C9.91383 9.38975 9.96401 8.85116 10.0594 8.3197H5.11944V24.5197Z" fill="#696871"/>
</svg>
