<svg width="119" height="24" viewBox="0 0 119 24" fill="none" xmlns="http://www.w3.org/2000/svg">
<path d="M38.4093 19.2101C37.8145 19.2424 37.2262 19.0733 36.7393 18.7301C36.3263 18.424 36.0906 17.9339 36.1093 17.4201V8.15013C36.0995 8.0706 36.1269 7.99097 36.1835 7.93431C36.2402 7.87764 36.3198 7.85028 36.3993 7.86013H38.0793C38.2693 7.86013 38.3593 7.96013 38.3593 8.15013V16.7001C38.3593 17.0801 38.5293 17.2701 38.8793 17.2701C39.0277 17.2762 39.1761 17.2594 39.3193 17.2201C39.5193 17.2201 39.6293 17.2801 39.6393 17.4601L39.7893 18.7101C39.8039 18.7839 39.7859 18.8603 39.7399 18.9197C39.6939 18.9792 39.6244 19.0158 39.5493 19.0201C39.1814 19.1417 38.7968 19.2058 38.4093 19.2101Z" fill="#696871"/>
<path fill-rule="evenodd" clip-rule="evenodd" d="M41.8593 18.1401C43.6006 19.5788 46.118 19.5788 47.8593 18.1401V18.1301C49.3654 16.5595 49.3654 14.0807 47.8593 12.5101C46.1152 11.0793 43.6034 11.0793 41.8593 12.5101C40.315 14.0691 40.315 16.5811 41.8593 18.1401ZM46.2993 16.8201C45.4877 17.5553 44.2509 17.5553 43.4393 16.8201C42.7062 15.9772 42.7062 14.723 43.4393 13.8801C44.2509 13.1449 45.4877 13.1449 46.2993 13.8801C47.0324 14.723 47.0324 15.9772 46.2993 16.8201Z" fill="#696871"/>
<path fill-rule="evenodd" clip-rule="evenodd" d="M58.5193 11.98C58.5193 11.79 58.4293 11.69 58.2393 11.69L56.5793 11.7C56.5015 11.6934 56.4247 11.7223 56.3705 11.7785C56.3162 11.8347 56.29 11.9124 56.2993 11.99V12.15C55.6891 11.6833 54.9373 11.4397 54.1693 11.46C53.1158 11.4224 52.0917 11.8119 51.3293 12.54C49.8307 14.0904 49.8307 16.5496 51.3293 18.1C52.0882 18.8348 53.1138 19.2284 54.1693 19.19C54.9157 19.2112 55.6478 18.9824 56.2493 18.54V19.17C56.2697 19.6333 56.1 20.0849 55.7793 20.42C55.4285 20.7402 54.9636 20.906 54.4893 20.88C54.1002 20.8878 53.7152 20.7985 53.3693 20.62C53.0855 20.4665 52.8683 20.2137 52.7593 19.91C52.7043 19.775 52.5751 19.685 52.4293 19.68H50.7493C50.4793 19.68 50.4793 19.77 50.4793 19.97C50.62 20.7894 51.0944 21.5137 51.7893 21.97C52.5944 22.4919 53.5405 22.7537 54.4993 22.72C55.5609 22.7668 56.6008 22.4095 57.4093 21.72C58.1471 21.0739 58.5547 20.13 58.5193 19.15V11.98ZM55.7293 16.82C55.3827 17.21 54.8809 17.4262 54.3593 17.41C53.8322 17.4252 53.3246 17.2098 52.9693 16.82C52.6107 16.4082 52.4213 15.8758 52.4393 15.33C52.4173 14.7788 52.611 14.2407 52.9793 13.83C53.3338 13.4391 53.8419 13.2234 54.3693 13.24C54.8861 13.2229 55.384 13.4353 55.7293 13.82C56.4132 14.7031 56.4132 15.9369 55.7293 16.82Z" fill="#696871"/>
<path fill-rule="evenodd" clip-rule="evenodd" d="M61.1494 18.1401C62.8935 19.5709 65.4053 19.5709 67.1494 18.1401V18.1301C68.6554 16.5595 68.6554 14.0807 67.1494 12.5101C65.4039 11.0832 62.8949 11.0832 61.1494 12.5101C59.642 14.0841 59.642 16.5661 61.1494 18.1401ZM64.1594 17.3701C63.6252 17.3866 63.1066 17.1885 62.7194 16.8201C61.999 15.9725 61.999 14.7277 62.7194 13.8801C63.1066 13.5117 63.6252 13.3137 64.1594 13.3301C64.6901 13.3164 65.2046 13.5142 65.5894 13.8801C66.3097 14.7277 66.3097 15.9725 65.5894 16.8201C65.2046 17.186 64.6901 17.3839 64.1594 17.3701Z" fill="#696871"/>
<path fill-rule="evenodd" clip-rule="evenodd" d="M69.9794 9.99021C70.5261 10.4688 71.3426 10.4688 71.8894 9.99021C72.1316 9.76161 72.2689 9.44327 72.2689 9.11021C72.2689 8.77714 72.1316 8.45881 71.8894 8.23021C71.3379 7.76441 70.5308 7.76441 69.9794 8.23021C69.7371 8.45881 69.5999 8.77714 69.5999 9.11021C69.5999 9.44327 69.7371 9.76161 69.9794 9.99021ZM70.4294 18.7302C70.9176 19.0705 71.5049 19.2394 72.0994 19.2102C72.4902 19.2066 72.8781 19.1425 73.2494 19.0202C73.3244 19.0159 73.3939 18.9792 73.4399 18.9198C73.4859 18.8604 73.504 18.7839 73.4894 18.7102L73.3394 17.4602C73.3294 17.2802 73.2194 17.2202 73.0194 17.2202C72.8726 17.2588 72.721 17.2757 72.5694 17.2702C72.2294 17.2702 72.0594 17.0802 72.0594 16.7002V11.9802C72.0594 11.7902 71.9694 11.6902 71.7794 11.6902H70.0994C70.0198 11.6804 69.9402 11.7077 69.8836 11.7644C69.8269 11.8211 69.7995 11.9007 69.8094 11.9802V17.4202C69.7918 17.9315 70.0228 18.4197 70.4294 18.7302Z" fill="#696871"/>
<path fill-rule="evenodd" clip-rule="evenodd" d="M82.5294 12.5301C81.7615 11.7979 80.7296 11.4082 79.6694 11.4501C78.7436 11.4299 77.8503 11.7916 77.1994 12.4501C76.856 11.7792 76.1401 11.3837 75.3894 11.4501C75.0214 11.4434 74.6553 11.5044 74.3094 11.6301C74.1645 11.6722 74.0687 11.8097 74.0794 11.9601V13.1401C74.0794 13.3001 74.1894 13.3801 74.4094 13.3801H74.7394C74.902 13.3562 75.0663 13.4107 75.1826 13.5269C75.2988 13.6431 75.3532 13.8075 75.3294 13.9701V22.1701C75.3148 22.2479 75.3396 22.3279 75.3956 22.3839C75.4516 22.4399 75.5315 22.4647 75.6094 22.4501H77.2894C77.4794 22.4501 77.5794 22.3601 77.5794 22.1701V18.5601C78.1867 18.9985 78.9205 19.2268 79.6694 19.2101C80.7316 19.2528 81.765 18.859 82.5294 18.1201C83.9965 16.5456 83.9965 14.1047 82.5294 12.5301ZM79.4894 17.4096C78.9682 17.4096 78.4697 17.1967 78.1094 16.8201C77.7481 16.394 77.5591 15.8484 77.5794 15.2901C77.5561 14.7314 77.7455 14.1847 78.1094 13.7601C78.4697 13.3836 78.9682 13.1706 79.4894 13.1706C80.0105 13.1706 80.5091 13.3836 80.8694 13.7601C81.2478 14.1773 81.4455 14.7274 81.4194 15.2901C81.4423 15.8523 81.245 16.4012 80.8694 16.8201C80.5091 17.1967 80.0105 17.4096 79.4894 17.4096Z" fill="#696871"/>
<path d="M88.3493 19.2102C87.4516 19.2471 86.5615 19.0324 85.7793 18.5902C85.1436 18.2073 84.7167 17.5559 84.6193 16.8202C84.6193 16.6202 84.6893 16.5202 84.9093 16.5202H86.3793C86.5219 16.5258 86.6494 16.6107 86.7093 16.7402C86.9193 17.2802 87.4693 17.5502 88.3493 17.5502C88.6563 17.5642 88.962 17.5024 89.2393 17.3702C89.4344 17.2821 89.5651 17.0938 89.5793 16.8802C89.5793 16.6202 89.4193 16.4402 89.0993 16.3202C88.7198 16.1939 88.3274 16.11 87.9293 16.0702C87.4578 16.0168 86.9902 15.9333 86.5293 15.8202C86.0812 15.7188 85.6736 15.4854 85.3593 15.1502C84.9852 14.6897 84.819 14.0945 84.9005 13.5067C84.9821 12.919 85.3039 12.3915 85.7893 12.0502C86.5101 11.591 87.3558 11.3674 88.2093 11.4102C89.0357 11.3823 89.8533 11.5867 90.5693 12.0002C91.1537 12.3312 91.5578 12.9079 91.6693 13.5702C91.6693 13.7702 91.5793 13.8702 91.3993 13.8702H89.9193C89.7918 13.8778 89.6727 13.8063 89.6193 13.6902C89.5204 13.4534 89.3343 13.2636 89.0993 13.1602C88.8343 13.0215 88.5383 12.9527 88.2393 12.9602C87.9462 12.9443 87.6538 13.0027 87.3893 13.1302C87.1987 13.2037 87.072 13.3859 87.0693 13.5902C87.0824 13.8709 87.2771 14.1103 87.5493 14.1802C87.9334 14.3249 88.3326 14.4256 88.7393 14.4802C89.207 14.5417 89.671 14.6285 90.1293 14.7402C90.5775 14.8416 90.985 15.075 91.2993 15.4102C91.6389 15.7832 91.8154 16.2764 91.7893 16.7802C91.8069 17.4834 91.4537 18.1441 90.8593 18.5202C90.1122 18.9998 89.2367 19.2405 88.3493 19.2102Z" fill="#696871"/>
<path d="M102.359 18.7102C102.371 18.7819 102.353 18.8552 102.31 18.9136C102.266 18.9719 102.201 19.0103 102.129 19.0202C101.764 19.1394 101.383 19.2034 100.999 19.2102C100.226 19.2902 99.4678 18.9603 98.9993 18.3402C98.2929 18.9475 97.3796 19.2591 96.4493 19.2102C95.5759 19.2504 94.7261 18.9199 94.1093 18.3002C93.4973 17.6513 93.176 16.7811 93.2193 15.8902V11.9802C93.2193 11.7902 93.3093 11.6902 93.4993 11.6902H95.1793C95.3693 11.6902 95.4593 11.7902 95.4593 11.9802V15.5902C95.4411 16.0399 95.5948 16.4798 95.8893 16.8202C96.1867 17.1357 96.6061 17.3071 97.0393 17.2902C97.482 17.3096 97.9141 17.1511 98.2393 16.8502C98.5474 16.5328 98.7103 16.102 98.6893 15.6602V11.9802C98.6893 11.7902 98.7793 11.6902 98.9693 11.6902H100.669C100.859 11.6902 100.949 11.7902 100.949 11.9802V16.6902C100.949 17.0802 101.119 17.2702 101.449 17.2702C101.604 17.2762 101.759 17.2593 101.909 17.2202C101.986 17.1987 102.068 17.2135 102.132 17.2603C102.197 17.307 102.236 17.3807 102.239 17.4602L102.359 18.7102Z" fill="#696871"/>
<path d="M118.249 18.7102C118.267 18.7827 118.252 18.8595 118.208 18.9195C118.163 18.9795 118.094 19.0164 118.019 19.0202C117.648 19.1411 117.26 19.2051 116.869 19.2102C116.275 19.2409 115.687 19.0719 115.199 18.7302C114.771 18.4329 114.52 17.9414 114.529 17.4202V15.0702C114.55 14.6218 114.4 14.1821 114.109 13.8402C113.825 13.5237 113.414 13.3512 112.989 13.3702C112.606 13.3557 112.238 13.5179 111.989 13.8102C111.725 14.1453 111.591 14.564 111.609 14.9902V18.6802C111.609 18.8702 111.519 18.9702 111.329 18.9702H109.639C109.56 18.9801 109.48 18.9527 109.424 18.896C109.367 18.8394 109.339 18.7597 109.349 18.6802V15.0702C109.371 14.6267 109.233 14.1901 108.959 13.8402C108.712 13.5426 108.346 13.3704 107.959 13.3702C107.547 13.3535 107.147 13.5136 106.859 13.8102C106.573 14.1346 106.426 14.5583 106.449 14.9902V18.6802C106.459 18.7597 106.432 18.8394 106.375 18.896C106.319 18.9527 106.239 18.9801 106.159 18.9702H104.529C104.339 18.9702 104.249 18.8702 104.249 18.6802V13.9702C104.273 13.8076 104.219 13.6432 104.103 13.527C103.986 13.4108 103.822 13.3563 103.659 13.3802H103.329C103.109 13.3802 102.999 13.3002 102.999 13.1402V11.9602C102.989 11.8097 103.084 11.6722 103.229 11.6302C103.575 11.5045 103.941 11.4434 104.309 11.4502C105.03 11.3888 105.722 11.7466 106.089 12.3702C106.771 11.7238 107.692 11.3905 108.629 11.4502C109.543 11.4056 110.423 11.7993 110.999 12.5102C111.67 11.7818 112.631 11.3927 113.619 11.4502C114.502 11.4089 115.361 11.7389 115.989 12.3602C116.603 13.0078 116.925 13.8789 116.879 14.7702V16.7002C116.879 17.0802 117.049 17.2702 117.369 17.2702C117.524 17.2774 117.68 17.2606 117.829 17.2202C118.036 17.2202 118.146 17.3002 118.159 17.4602L118.249 18.7102Z" fill="#696871"/>
<path fill-rule="evenodd" clip-rule="evenodd" d="M0.989346 10.3901C2.50743 4.28843 7.98667 0.00537109 14.2743 0.00537109C20.562 0.00537109 26.0413 4.28843 27.5593 10.3901H26.3593C24.335 10.3603 22.3522 10.9653 20.6893 12.1201C20.5934 12.1896 20.4932 12.253 20.3893 12.3101H20.2493C20.1455 12.253 20.0453 12.1896 19.9493 12.1201C16.5178 9.81261 12.0308 9.81261 8.59935 12.1201C8.50338 12.1896 8.40318 12.253 8.29935 12.3101H8.15935C8.05551 12.253 7.95531 12.1896 7.85935 12.1201C6.19648 10.9653 4.21366 10.3603 2.18935 10.3901H0.989346ZM24.1993 16.6601C24.8154 16.1803 25.5788 15.9294 26.3593 15.9501H27.9693V12.7401H26.3593C24.9846 12.7235 23.6412 13.1514 22.5293 13.9601C21.245 14.907 19.4937 14.907 18.2093 13.9601C15.8744 12.3347 12.7743 12.3347 10.4393 13.9601C9.155 14.907 7.40369 14.907 6.11935 13.9601C4.99374 13.141 3.63114 12.7126 2.23935 12.7401H0.579346V15.9501H2.18935C2.96985 15.9294 3.73333 16.1803 4.34935 16.6601C6.68029 18.2867 9.7784 18.2867 12.1093 16.6601C12.7261 16.1818 13.4891 15.931 14.2693 15.9501C15.0501 15.9277 15.8141 16.1789 16.4293 16.6601C18.7643 18.2855 21.8644 18.2855 24.1993 16.6601ZM26.3593 21.6901C25.5788 21.6694 24.8154 21.9203 24.1993 22.4001C21.8644 24.0255 18.7643 24.0255 16.4293 22.4001C15.8141 21.9189 15.0501 21.6677 14.2693 21.6901C13.4891 21.671 12.7261 21.9218 12.1093 22.4001C9.7784 24.0267 6.68029 24.0267 4.34935 22.4001C3.73333 21.9203 2.96985 21.6694 2.18935 21.6901H0.579346V18.4801H2.23935C3.63114 18.4526 4.99374 18.881 6.11935 19.7001C7.40369 20.647 9.155 20.647 10.4393 19.7001C12.7743 18.0747 15.8744 18.0747 18.2093 19.7001C19.4937 20.647 21.245 20.647 22.5293 19.7001C23.6412 18.8914 24.9846 18.4635 26.3593 18.4801H27.9693V21.6901H26.3593Z" fill="#696871"/>
</svg>
