<svg width="379" height="291" viewBox="0 0 379 291" fill="none" xmlns="http://www.w3.org/2000/svg">
<g opacity="0.1">
<mask id="mask0_123_445" style="mask-type:alpha" maskUnits="userSpaceOnUse" x="0" y="0" width="379" height="291">
<rect x="378.5" y="0.5" width="290" height="378" transform="rotate(90 378.5 0.5)" fill="url(#paint0_linear_123_445)" stroke="#6246E5"/>
</mask>
<g mask="url(#mask0_123_445)">
<path d="M135.505 383.92C66.1724 383.92 9.96583 327.635 9.96583 258.202C9.96583 188.77 66.1724 132.484 135.505 132.484C204.838 132.484 261.045 188.77 261.045 258.202C261.045 327.635 204.838 383.92 135.505 383.92Z" stroke="#6246E5"/>
<path d="M148.773 388.902C71.1966 388.902 8.30752 325.925 8.30752 248.237C8.30752 170.55 71.1966 107.573 148.773 107.573C226.349 107.573 289.238 170.55 289.238 248.237C289.238 325.925 226.349 388.902 148.773 388.902Z" stroke="#6246E5"/>
<path d="M159.552 393.885C74.6488 393.885 5.81978 324.959 5.81979 239.934C5.81979 154.909 74.6488 85.9833 159.552 85.9833C244.456 85.9833 313.285 154.909 313.285 239.934C313.285 324.959 244.456 393.885 159.552 393.885Z" stroke="#6246E5"/>
<path d="M175.308 397.206C83.9928 397.206 9.96624 323.076 9.96624 231.63C9.96624 140.184 83.9928 66.0542 175.308 66.0542C266.622 66.0542 340.649 140.184 340.649 231.63C340.649 323.076 266.622 397.206 175.308 397.206Z" stroke="#6246E5"/>
<path d="M190.648 400.528C93.1504 400.528 14.1121 321.378 14.1121 223.742C14.1121 126.105 93.1505 46.9553 190.648 46.9553C288.145 46.9553 367.183 126.105 367.183 223.742C367.183 321.379 288.145 400.528 190.648 400.528Z" stroke="#6246E5"/>
<path d="M208.061 404.68C100.947 404.68 14.1121 317.723 14.1121 210.456C14.1121 103.188 100.947 16.2315 208.061 16.2315C315.175 16.2315 402.01 103.188 402.01 210.456C402.01 317.723 315.175 404.68 208.061 404.68Z" stroke="#6246E5"/>
</g>
</g>
<defs>
<linearGradient id="paint0_linear_123_445" x1="585.389" y1="10.6333" x2="391.616" y2="385.521" gradientUnits="userSpaceOnUse">
<stop stop-color="#747DEF"/>
<stop offset="1" stop-color="#5E3BE1"/>
</linearGradient>
</defs>
</svg>
