<svg width="1170" height="407" viewBox="0 0 1170 407" fill="none" xmlns="http://www.w3.org/2000/svg">
<g clip-path="url(#clip0_123_471)">
<path opacity="0.2" d="M1170 20C1170 8.9543 1161.05 0 1150 0H129C57.7553 0 0 57.7553 0 129V387C0 398.046 8.95431 407 20 407H1150C1161.05 407 1170 398.046 1170 387V20Z" fill="#DFD7F9"/>
<g opacity="0.1">
<mask id="mask0_123_471" style="mask-type:alpha" maskUnits="userSpaceOnUse" x="906" y="0" width="264" height="352">
<path d="M906.5 0.5H1146C1158.98 0.5 1169.5 11.0213 1169.5 24V351.022H956C928.662 351.022 906.5 328.86 906.5 301.522V0.5Z" fill="url(#paint0_linear_123_471)" stroke="#6246E5"/>
</mask>
<g mask="url(#mask0_123_471)">
<circle cx="1145.01" cy="178.32" r="91.8033" stroke="#6246E5"/>
<circle cx="1137.73" cy="168.604" r="102.734" stroke="#6246E5"/>
<circle cx="1131.66" cy="160.709" r="112.45" stroke="#6246E5"/>
<circle cx="1125.58" cy="149.171" r="120.952" stroke="#6246E5"/>
<circle cx="1119.81" cy="137.937" r="129.15" stroke="#6246E5"/>
<circle cx="1110.1" cy="125.185" r="141.902" stroke="#6246E5"/>
</g>
</g>
<g opacity="0.1">
<mask id="mask1_123_471" style="mask-type:alpha" maskUnits="userSpaceOnUse" x="-87" y="46" width="480" height="361">
<rect x="392.5" y="46.5" width="360" height="479" transform="rotate(90 392.5 46.5)" fill="url(#paint1_linear_123_471)" stroke="#6246E5"/>
</mask>
<g mask="url(#mask1_123_471)">
<path d="M149.505 499.92C80.1724 499.92 23.9658 443.635 23.9658 374.202C23.9658 304.77 80.1724 248.484 149.505 248.484C218.838 248.484 275.045 304.77 275.045 374.202C275.045 443.635 218.838 499.92 149.505 499.92Z" stroke="#6246E5"/>
<path d="M162.773 504.902C85.1966 504.902 22.3075 441.925 22.3075 364.237C22.3075 286.55 85.1966 223.573 162.773 223.573C240.349 223.573 303.238 286.55 303.238 364.237C303.238 441.925 240.349 504.902 162.773 504.902Z" stroke="#6246E5"/>
<path d="M173.552 509.885C88.6488 509.885 19.8198 440.959 19.8198 355.934C19.8198 270.909 88.6488 201.983 173.552 201.983C258.456 201.983 327.285 270.909 327.285 355.934C327.285 440.959 258.456 509.885 173.552 509.885Z" stroke="#6246E5"/>
<path d="M189.308 513.206C97.9928 513.206 23.9662 439.076 23.9662 347.63C23.9662 256.184 97.9928 182.054 189.308 182.054C280.622 182.054 354.649 256.184 354.649 347.63C354.649 439.076 280.622 513.206 189.308 513.206Z" stroke="#6246E5"/>
<path d="M204.648 516.528C107.15 516.528 28.1121 437.378 28.1121 339.741C28.1121 242.104 107.15 162.955 204.648 162.955C302.145 162.955 381.183 242.104 381.183 339.741C381.183 437.378 302.145 516.528 204.648 516.528Z" stroke="#6246E5"/>
<path d="M222.061 520.68C114.947 520.68 28.1121 433.723 28.1121 326.456C28.1121 219.188 114.947 132.232 222.061 132.232C329.175 132.232 416.01 219.188 416.01 326.456C416.01 433.723 329.175 520.68 222.061 520.68Z" stroke="#6246E5"/>
</g>
</g>
</g>
<defs>
<linearGradient id="paint0_linear_123_471" x1="1093.24" y1="9.86234" x2="911.232" y2="354.287" gradientUnits="userSpaceOnUse">
<stop stop-color="#747DEF"/>
<stop offset="1" stop-color="#5E3BE1"/>
</linearGradient>
<linearGradient id="paint1_linear_123_471" x1="649.035" y1="59.4669" x2="400.704" y2="530.066" gradientUnits="userSpaceOnUse">
<stop stop-color="#747DEF"/>
<stop offset="1" stop-color="#5E3BE1"/>
</linearGradient>
<clipPath id="clip0_123_471">
<rect width="1170" height="407" fill="white"/>
</clipPath>
</defs>
</svg>
