<svg width="512" height="512" viewBox="0 0 512 512" fill="none" xmlns="http://www.w3.org/2000/svg">
<path d="M344.116 256C344.116 324.049 331.879 384.456 313.118 426.915C303.723 448.178 293.182 463.83 282.743 473.823C272.429 483.695 263.433 487 256 487C248.567 487 239.571 483.695 229.257 473.823C218.818 463.83 208.277 448.178 198.882 426.915C180.121 384.456 167.884 324.049 167.884 256C167.884 187.951 180.121 127.544 198.882 85.0848C208.277 63.8217 218.818 48.1705 229.257 38.1774C239.571 28.3047 248.567 25 256 25C263.433 25 272.429 28.3047 282.743 38.1774C293.182 48.1705 303.723 63.8217 313.118 85.0848C331.879 127.544 344.116 187.951 344.116 256Z" stroke="white" stroke-width="50"/>
<path d="M256 344.116C187.951 344.116 127.544 331.879 85.0847 313.118C63.8217 303.723 48.1705 293.182 38.1774 282.743C28.3047 272.429 25 263.433 25 256C25 248.567 28.3047 239.571 38.1774 229.257C48.1705 218.818 63.8217 208.277 85.0847 198.882C127.544 180.121 187.951 167.884 256 167.884C324.049 167.884 384.456 180.121 426.915 198.882C448.178 208.277 463.83 218.818 473.823 229.257C483.695 239.571 487 248.567 487 256C487 263.433 483.695 272.429 473.823 282.743C463.83 293.182 448.178 303.723 426.915 313.118C384.456 331.879 324.049 344.116 256 344.116Z" stroke="#FAFBFF" stroke-width="50"/>
</svg>
