<svg width="154" height="74" viewBox="0 0 154 74" fill="none" xmlns="http://www.w3.org/2000/svg">
    <g clip-path="url(#clip0_8_122)">
        <path d="M7.82 16.07H0V13.27H19V16.07H11.16V39H7.82V16.07Z" fill="white" />
        <path d="M29.68 39C29.77 37.73 29.83 35.88 29.83 34.24V11.89H33.17V23.48H33.24C33.872 22.3912 34.7935 21.4989 35.9022 20.9022C37.0108 20.3055 38.2631 20.0278 39.52 20.1C44.1 20.1 47.32 23.91 47.3 29.48C47.3 36.09 43.12 39.37 39.01 39.37C37.7598 39.4339 36.5168 39.1441 35.4238 38.5339C34.3307 37.9237 33.4317 37.0178 32.83 35.92H32.74L32.57 38.92L29.68 39ZM33.17 31.61C33.1671 32.017 33.2107 32.4229 33.3 32.82C33.5763 33.9385 34.2184 34.9327 35.1242 35.6447C36.0301 36.3567 37.1478 36.7457 38.3 36.75C41.83 36.75 43.9 33.89 43.9 29.66C43.9 25.96 41.98 22.79 38.4 22.79C37.218 22.8186 36.079 23.2386 35.1615 23.9842C34.2439 24.7299 33.5998 25.7589 33.33 26.91C33.2048 27.3627 33.1409 27.8303 33.14 28.3L33.17 31.61Z" fill="white" />
        <path d="M53.44 30.34C53.5 34.87 56.38 36.74 59.74 36.74C61.4952 36.7748 63.2375 36.4339 64.85 35.74L65.43 38.12C63.4912 38.9476 61.3975 39.35 59.29 39.3C53.63 39.3 50.22 35.52 50.22 30C50.22 24.48 53.51 20.05 58.89 20.05C64.89 20.05 66.47 25.33 66.47 28.72C66.4809 29.2456 66.4441 29.7711 66.36 30.29L53.44 30.34ZM63.25 27.93C63.25 25.82 62.38 22.5 58.62 22.5C55.2 22.5 53.75 25.6 53.48 27.93H63.25Z" fill="white" />
        <path d="M70.5 39C70.58 37.73 70.65 35.88 70.65 34.24V11.89H74V23.48H74.07C74.7037 22.3904 75.6269 21.4977 76.7373 20.901C77.8476 20.3044 79.1016 20.0271 80.36 20.1C84.94 20.1 88.15 23.91 88.14 29.48C88.14 36.09 83.95 39.37 79.84 39.37C78.59 39.4327 77.3475 39.1424 76.2546 38.5323C75.1618 37.9222 74.2627 37.017 73.66 35.92H73.58L73.41 38.92L70.5 39ZM74 31.56C74.0004 31.9674 74.0473 32.3733 74.14 32.77C74.4147 33.8894 75.0564 34.8846 75.9626 35.5969C76.8688 36.3091 77.9874 36.6975 79.14 36.7C82.67 36.7 84.74 33.84 84.74 29.61C84.74 25.91 82.83 22.74 79.24 22.74C78.058 22.7686 76.919 23.1886 76.0015 23.9342C75.0839 24.6799 74.4398 25.7089 74.17 26.86C74.0563 27.3146 73.9992 27.7814 74 28.25V31.56Z" fill="white" />
        <path d="M30.37 49.14C30.37 47.22 30.3 45.69 30.21 44.14H33.21L33.4 47.14H33.49C34.0969 46.0646 34.9857 45.1751 36.0605 44.5672C37.1353 43.9593 38.3556 43.656 39.59 43.69C42.12 43.69 46.08 45.21 46.08 51.54V62.54H42.71V52C42.71 49 41.58 46.52 38.45 46.52C37.4302 46.5439 36.444 46.8894 35.6323 47.5072C34.8206 48.125 34.2248 48.9834 33.93 49.96C33.7749 50.4654 33.6974 50.9914 33.7 51.52V62.62H30.37V49.14Z" fill="white" />
        <path d="M51.51 50.17C51.51 47.82 51.45 45.9 51.36 44.17H54.36L54.55 47.31H54.62C55.2813 46.1762 56.2404 45.245 57.3933 44.6174C58.5461 43.9899 59.8488 43.6899 61.16 43.75C65.62 43.75 68.99 47.5 68.99 53.1C69 59.74 64.91 63 60.6 63C59.4828 63.0524 58.3712 62.8124 57.3751 62.3038C56.379 61.7952 55.5328 61.0356 54.92 60.1H54.84V70.1H51.51V50.17ZM54.84 55.09C54.841 55.5513 54.8947 56.0109 55 56.46C55.2732 57.5803 55.9144 58.5764 56.8209 59.289C57.7275 60.0015 58.8469 60.3892 60 60.39C63.55 60.39 65.6 57.47 65.6 53.25C65.6 49.57 63.67 46.41 60.13 46.41C58.9453 46.434 57.8026 46.8536 56.8838 47.602C55.9651 48.3504 55.3231 49.3846 55.06 50.54C54.9325 50.9863 54.8586 51.4462 54.84 51.91V55.09Z" fill="white" />
        <path d="M73.19 49.9C73.19 47.73 73.19 45.9 73.04 44.17H76L76.13 47.78H76.24C76.5727 46.6606 77.247 45.6731 78.1687 44.9559C79.0903 44.2387 80.2131 43.8275 81.38 43.78C81.6925 43.7728 82.0047 43.803 82.31 43.87V47C81.9342 46.9304 81.5521 46.9002 81.17 46.91C78.81 46.91 77.17 48.69 76.68 51.19C76.5937 51.7089 76.5502 52.234 76.55 52.76V62.6H73.19V49.9Z" fill="white" />
        <path d="M89.56 39C89.56 39.5516 89.3409 40.0807 88.9508 40.4708C88.5607 40.8608 88.0317 41.08 87.48 41.08C86.9284 41.08 86.3993 40.8608 86.0092 40.4708C85.6191 40.0807 85.4 39.5516 85.4 39C85.3872 38.7221 85.4325 38.4446 85.533 38.1853C85.6335 37.9259 85.787 37.6903 85.9837 37.4937C86.1804 37.297 86.4159 37.1435 86.6753 37.043C86.9347 36.9425 87.2121 36.8972 87.49 36.91C87.7662 36.9 88.0415 36.9474 88.2985 37.0492C88.5555 37.151 88.7886 37.3049 88.9831 37.5013C89.1776 37.6977 89.3293 37.9322 89.4286 38.1902C89.5279 38.4481 89.5726 38.7239 89.56 39ZM85.81 62.59V44.17H89.15V62.59H85.81Z" fill="white" />
        <path d="M94.73 49.14C94.73 47.22 94.67 45.69 94.58 44.14H97.58L97.76 47.14H97.86C98.4653 46.0654 99.3523 45.1763 100.425 44.5684C101.498 43.9604 102.717 43.6568 103.95 43.69C106.48 43.69 110.44 45.21 110.44 51.54V62.54H107.11V52C107.11 49 105.99 46.52 102.85 46.52C101.831 46.5454 100.845 46.8915 100.034 47.5091C99.2223 48.1266 98.6261 48.9842 98.33 49.96C98.1797 50.4665 98.1023 50.9917 98.1 51.52V62.62H94.73V49.14Z" fill="white" />
        <path d="M119.75 38.86V44.17H124.56V46.7H119.75V56.63C119.75 58.93 120.41 60.23 122.28 60.23C122.956 60.2507 123.63 60.1663 124.28 59.98L124.43 62.53C123.466 62.8627 122.45 63.0185 121.43 62.99C120.762 63.0252 120.094 62.9166 119.471 62.6716C118.848 62.4267 118.285 62.051 117.82 61.57C116.89 60.57 116.52 58.93 116.52 56.77V46.7H113.66V44.17H116.52V39.73L119.75 38.86Z" fill="white" />
        <path d="M128.57 61.7V62.58H127.66V61.7H128.57Z" fill="white" />
        <path d="M134.69 58.76C134.623 58.5613 134.529 58.3728 134.41 58.2C134.214 57.9553 133.964 57.7599 133.679 57.6297C133.394 57.4994 133.083 57.4379 132.77 57.45C132.426 57.4567 132.087 57.5279 131.77 57.66C131.366 57.8351 131.027 58.1335 130.803 58.5124C130.579 58.8913 130.479 59.3315 130.52 59.77C130.492 60.3334 130.67 60.8877 131.02 61.33C131.232 61.577 131.496 61.7735 131.794 61.905C132.091 62.0365 132.415 62.0997 132.74 62.09C133.062 62.103 133.382 62.0422 133.677 61.9122C133.972 61.7822 134.233 61.5865 134.44 61.34C134.588 61.1049 134.699 60.8486 134.77 60.58H135.51C135.423 61.0628 135.205 61.5125 134.88 61.88C134.615 62.1711 134.288 62.3981 133.922 62.5436C133.556 62.6892 133.162 62.7495 132.77 62.72C132.254 62.7286 131.743 62.6263 131.27 62.42C130.79 62.1718 130.395 61.7863 130.135 61.3125C129.875 60.8387 129.762 60.2983 129.81 59.76C129.801 59.3584 129.866 58.9586 130 58.58C130.226 58.0271 130.617 57.5575 131.12 57.2353C131.623 56.9132 132.213 56.7541 132.81 56.78C133.271 56.763 133.728 56.8666 134.137 57.0805C134.546 57.2945 134.891 57.6115 135.14 58C135.275 58.2403 135.383 58.4953 135.46 58.76H134.69Z" fill="white" />
        <path d="M136.69 58.46C136.943 57.9477 137.337 57.5183 137.826 57.2225C138.315 56.9266 138.879 56.7766 139.45 56.79C139.842 56.7978 140.23 56.8687 140.6 57C141.149 57.214 141.617 57.5939 141.94 58.0869C142.263 58.5799 142.424 59.1613 142.4 59.75C142.402 60.2179 142.307 60.6811 142.12 61.11C141.863 61.6068 141.472 62.0217 140.991 62.308C140.51 62.5943 139.959 62.7404 139.4 62.73C138.994 62.7283 138.592 62.6573 138.21 62.52C137.665 62.3089 137.199 61.9318 136.88 61.4419C136.561 60.952 136.403 60.3742 136.43 59.79C136.414 59.3326 136.503 58.8777 136.69 58.46ZM137.35 60.78C137.541 61.1755 137.841 61.5081 138.215 61.7385C138.589 61.9689 139.021 62.0874 139.46 62.08C139.762 62.08 140.06 62.0198 140.338 61.9031C140.617 61.7863 140.869 61.6153 141.08 61.4C141.482 60.9374 141.699 60.3428 141.69 59.73C141.695 59.1819 141.511 58.6488 141.17 58.22C140.95 57.973 140.68 57.7751 140.379 57.639C140.077 57.5029 139.751 57.4317 139.42 57.43C139.1 57.4311 138.784 57.4956 138.49 57.62C138.105 57.7975 137.777 58.0785 137.542 58.4316C137.307 58.7848 137.175 59.1962 137.16 59.62C137.132 60.0162 137.197 60.4135 137.35 60.78Z" fill="white" />
        <path d="M144.45 58.09C144.579 57.9149 144.723 57.751 144.88 57.6C145.42 57.0919 146.139 56.8186 146.88 56.84C147.197 56.8205 147.514 56.8704 147.809 56.9861C148.104 57.1019 148.371 57.2806 148.59 57.51C148.733 57.7081 148.845 57.9274 148.92 58.16C149.037 57.9229 149.196 57.7093 149.39 57.53C149.921 57.0824 150.596 56.841 151.29 56.85C151.533 56.8508 151.775 56.881 152.01 56.94C152.27 56.9842 152.515 57.0911 152.724 57.2514C152.933 57.4117 153.1 57.6206 153.21 57.86C153.349 58.2093 153.41 58.5846 153.39 58.96V62.59H152.64V58.9C152.643 58.6218 152.577 58.3472 152.45 58.1C152.345 57.9516 152.211 57.8256 152.056 57.7294C151.902 57.6333 151.73 57.5689 151.55 57.54C151.374 57.5224 151.196 57.5224 151.02 57.54C150.739 57.5356 150.461 57.5883 150.201 57.6949C149.942 57.8015 149.707 57.9597 149.51 58.16C149.334 58.332 149.198 58.5401 149.11 58.77C148.998 59.091 148.947 59.4302 148.96 59.77V62.6H148.21V58.93C148.214 58.7264 148.184 58.5235 148.12 58.33C148.01 58.0492 147.81 57.8127 147.551 57.6572C147.292 57.5017 146.99 57.4359 146.69 57.47C146.092 57.4661 145.513 57.6793 145.06 58.07C144.889 58.2385 144.747 58.4345 144.64 58.65C144.522 58.9973 144.472 59.3638 144.49 59.73V62.59H143.74V57H144.46L144.45 58.09Z" fill="white" />
        <path d="M26.11 1.99999C26.12 1.99999 26.12 1.82999 26.11 1.99999V1.99999Z" fill="#F89728" />
        <path d="M25.07 2.59C25.07 2.59 25.07 2.59 25.07 2.69C25.0633 2.657 25.0633 2.62299 25.07 2.59Z" fill="#F89728" />
        <path d="M23.28 2.83C23.28 2.98 23.28 3.11 23.28 3.15C23.28 3.43 23.28 3.45 23.28 3.32C23.29 3 23.28 3.06 23.28 2.83Z" fill="#F89728" />
        <path d="M22.2 4V3.86C22.192 3.90632 22.192 3.95368 22.2 4Z" fill="#F89728" />
        <path d="M24.41 17.73C24.4051 17.7531 24.4051 17.7769 24.41 17.8C24.4088 17.7767 24.4088 17.7533 24.41 17.73Z" fill="#F89728" />
        <path d="M22.35 4.3V3.81C22.36 4 22.35 4.16 22.35 4.3Z" fill="#F89728" />
        <path d="M25.89 0.249998V0.0599976C25.894 0.123266 25.894 0.186729 25.89 0.249998Z" fill="#F89728" />
        <path d="M27.47 10.2C27.465 10.1334 27.465 10.0666 27.47 10V10.35C27.4727 10.3 27.4727 10.25 27.47 10.2Z" fill="#F89728" />
        <path d="M26.47 18.51V17.3C26.63 16.75 26.64 17.97 26.8 17V17.26C26.8 17.54 26.94 14.83 26.97 18.15V18.27C26.97 18.27 26.97 18.01 26.97 18.33V17.59C26.97 17.29 27.05 16.71 27.08 16.59C27.08 16.72 27.08 16.97 27.08 17.16L27.15 16.96V17.75C27.15 17.32 27.26 15.68 27.27 16.6C27.27 15.45 27.33 15.91 27.35 15.33C27.35 15.47 27.35 15.68 27.35 15.88C27.4337 15.5526 27.4839 15.2175 27.5 14.88C27.5 14.88 27.5 12.47 27.5 11.25C27.5 11.56 27.5 11.11 27.5 10.72V11C27.5 10.72 27.5 10 27.5 9.79V9.9C27.5 10.02 27.5 10.11 27.5 10.19C27.5052 10.2666 27.5052 10.3434 27.5 10.42V10.34C27.5 10.45 27.5 10.34 27.5 10.28V9.68C27.43 10.82 27.45 7.92 27.43 7.88C27.43 7.12 27.36 8.07 27.35 7.69C27.3254 7.22032 27.3254 6.74968 27.35 6.28C27.35 5.9 27.35 6.99 27.35 7.03V6.2C27.3637 5.97688 27.3637 5.75312 27.35 5.53C27.35 5.42 27.35 4.32 27.26 5.53C27.26 4.95 27.26 4.47 27.26 4.41C27.26 4.63 27.26 4.83 27.26 5.07C27.26 4.54 27.26 5.2 27.26 5.32C27.21 5.84 27.26 3.12 27.16 4.44V4.19C27.16 5.19 27.07 6.13 27.03 6.67V6.23V6.65C27.03 6.33 27.03 6.07 27.03 5.95C26.98 6.4 26.96 5.86 26.93 5.73L26.85 8.41C26.85 7.79 26.85 6.53 26.8 7.41V6.51C26.8 4.79 26.72 7.25 26.72 6.73V5.73C26.72 5.23 26.72 4.91 26.72 4.27V4.47C26.7211 4.73541 26.6943 5.00021 26.64 5.26C26.64 5.12 26.56 5.84 26.55 4.8L26.5 5.8V5.2V4.4C26.5 4.4 26.62 4.15 26.67 4.11V3.75C26.67 3.75 26.59 4.1 26.58 4.02C26.57 3.94 26.58 3.02 26.63 2.49L26.58 3.27C26.48 3.36 26.47 3.39 26.42 2.48V2.89C26.42 3.12 26.36 3.35 26.42 2.7C26.3321 2.15469 26.3019 1.60163 26.33 1.05L26.23 2C26.23 1.94 26.23 0.52 26.23 1.84V2.25C26.23 2.18 26.18 2.72 26.18 2.18C26.18 1.76 26.18 3.02 26.12 2.48C26.06 1.94 26 3.64 26 3.43V2.08C26 1.3 25.93 2.66 25.87 2.66C25.87 2.17 25.87 1.02 25.97 0C25.89 1.24 25.92 0.81 25.86 1.4C25.86 0.89 25.86 0.78 25.91 0.32C25.96 -0.14 25.91 0.78 25.85 0.75C25.8 1.75 25.73 3.24 25.72 3.3V3.6C25.72 4.11 25.64 4.35 25.63 3.87V3.38V3.63V3.01L25.58 3.2V3.36C25.58 3.45 25.53 3.66 25.52 3.36V3.02C25.52 1.95 25.41 3.35 25.34 3.46V2.76C25.34 2.06 25.29 3.84 25.28 3.49V2.63C25.2 3.76 25.28 2.39 25.28 1.96V3.09V2.85C25.28 2.47 25.33 1.42 25.36 0.85L25.3 1.74V0.74C25.23 1.89 25.3 0.55 25.24 1.17C25.24 0.79 25.24 0.58 25.24 0.42L25.13 1.82L25.18 1.2L25.12 2.65C25.04 3.75 25.12 2.49 25.05 2.89V2.46C25 2.81 25.05 2.2 25.05 1.87C25.05 2.14 25.05 2.54 25.05 2.73C25.05 2.92 25.05 2.22 25.05 2.06C25.05 3.06 24.96 3.54 24.96 3.06C24.9535 2.94342 24.9535 2.82658 24.96 2.71C24.96 2.86 24.96 3.11 24.96 2.88L25.02 1.8L24.95 2.8C24.95 2.5 24.9 3.28 24.95 2.55V2.34L24.87 2.08V1.22C24.81 2.4 24.87 0.76 24.78 2.22C24.78 1.42 24.68 2.79 24.78 1.12C24.72 0.99 24.62 2.59 24.58 1.78C24.58 0.36 24.53 0.78 24.49 0.67C24.37 1.25 24.29 1.78 24.17 2.23C24.17 0.23 24 2.9 23.99 1.79L24 2.6C24 1.35 23.88 2.87 23.88 1.6C23.88 1.95 23.88 2.06 23.88 2.08C23.88 2.1 23.88 2.27 23.88 2.77C23.8454 2.46765 23.8454 2.16235 23.88 1.86V1.76C23.88 0.76 23.81 2.22 23.83 1.36V2.42V2.24V2.04C23.59 4.4 23.69 1.04 23.47 3.17C23.53 2.01 23.41 3.78 23.47 2.51C23.47 0.91 23.4 2.85 23.35 3.27C23.35 3.34 23.35 3.41 23.35 3.51V3.35C23.45 1.75 23.26 4.68 23.35 3.35C23.29 2.14 23.08 3.35 22.97 2.8V3.21C22.97 3.13 22.87 3.63 22.88 2.97C22.89 2.31 22.77 3.97 22.76 4.08C22.7 4.79 22.76 3.38 22.76 3.45C22.76 3.52 22.63 5.11 22.61 4.45C22.66 3.09 22.44 5.78 22.51 4.25V4.37C22.51 3.29 22.37 5.13 22.36 4.15C22.36 4.15 22.36 4.03 22.36 3.93L22.03 8.58L21.83 13.71L21.74 17.87L21.9 17L22.05 18.64L22.62 18.11L22.71 17C22.71 19 22.97 16.71 23.02 18.15L23.07 17.15C23.0928 17.3928 23.0928 17.6372 23.07 17.88C23.38 17.68 23.75 16.36 23.96 17.63C23.96 18.29 24.06 17.91 24.05 18.63C24.19 17.42 24.28 17.44 24.37 17.57V17.67L24.42 17.49C24.42 17.57 24.42 17.69 24.42 17.76C24.5 16.88 24.54 17.76 24.58 18.12V18.23C24.91 18.42 25.31 16.58 25.58 17.98C25.66 19.61 25.94 17.38 26.06 18.74C26 19.7 26.42 19 26.47 18.51Z" fill="#F89728" />
        <path d="M27.06 17.2C27 17.63 27.05 17.47 27.06 17.2V17.2Z" fill="#F89728" />
        <path d="M26.84 5.71V5.73L26.86 5.13L26.84 5.71Z" fill="#F89728" />
        <path d="M27.33 5.38999C27.33 5.25999 27.33 5.38999 27.33 5.52999C27.31 5.54999 27.32 5.51999 27.33 5.38999Z" fill="#F89728" />
        <path d="M27.27 16.41C27.2851 16.247 27.2851 16.083 27.27 15.92C27.2726 15.9433 27.2726 15.9667 27.27 15.99V16.41Z" fill="#F89728" />
        <path d="M27.48 10.72V10.38C27.49 10.47 27.49 10.59 27.48 10.72Z" fill="#F89728" />
        <path d="M23.87 73.67C23.95 73.58 24.07 73.5 24.11 73.39C24.2357 73.0419 24.3327 72.684 24.4 72.32C24.61 70.94 24.81 69.57 24.98 68.19C25.8845 61.0558 26.3354 53.8713 26.33 46.68C26.3774 41.2343 25.9322 35.7955 25 30.43C24.9933 30.3819 24.9969 30.3329 25.0107 30.2863C25.0245 30.2398 25.0482 30.1967 25.08 30.16C25.5009 29.6874 25.7784 29.1046 25.88 28.48C26.0147 27.4648 25.8873 26.432 25.51 25.48C25.32 24.93 25.08 24.4 24.9 23.84C24.7522 23.4189 24.7279 22.9644 24.83 22.53C24.96 22.04 25.28 21.89 25.72 22.15C25.931 22.2958 26.1315 22.4562 26.32 22.63L26.51 22.82C26.525 22.4907 26.4652 22.1624 26.335 21.8595C26.2048 21.5567 26.0076 21.2874 25.7583 21.0718C25.509 20.8562 25.2141 20.6999 24.8957 20.6147C24.5772 20.5295 24.2437 20.5177 23.92 20.58L23.71 20.64C23.5625 20.7085 23.4189 20.7853 23.28 20.87C22.7591 21.2813 22.3612 21.8279 22.13 22.45C21.4274 24.2735 21.3224 26.273 21.83 28.16C21.8856 28.5917 22.0412 29.0044 22.2842 29.3655C22.5272 29.7265 22.851 30.026 23.23 30.24C23.23 30.24 23.23 30.32 23.23 30.36C22.3421 35.0506 21.8471 39.8071 21.75 44.58C21.5486 53.6066 22.0636 62.6349 23.29 71.58C23.3889 72.1674 23.5224 72.7484 23.69 73.32C23.63 73.5 23.77 73.58 23.87 73.67ZM24.47 29.57V27.36C24.4063 28.0784 24.2238 28.7813 23.93 29.44C24.1682 27.8177 24.2118 26.1727 24.06 24.54C24.62 25.49 25.08 28.78 24.47 29.57ZM25.39 27.48C25.379 27.6815 25.3385 27.8802 25.27 28.07C25.33 26.74 24.74 25.54 24.54 24.26C25.0212 25.2711 25.3094 26.3631 25.39 27.48ZM23.47 21.76C23.679 21.5672 23.9378 21.437 24.2171 21.3839C24.4964 21.3309 24.7849 21.3573 25.05 21.46C24.6172 21.5077 24.2031 21.6625 23.8452 21.9105C23.4873 22.1584 23.1968 22.4916 23 22.88C22.9821 22.6692 23.0155 22.4573 23.0973 22.2622C23.1792 22.0672 23.3071 21.8949 23.47 21.76ZM23.83 22.64L23.21 23.88H23.69C23.0895 24.5772 22.6705 25.4119 22.47 26.31C22.4 25.29 23.07 23.11 23.83 22.64ZM23.63 25.14L23.06 27.77C22.9337 26.8535 23.1356 25.9219 23.63 25.14ZM22.53 40C22.53 39.79 22.8 39.81 22.97 39.79L25.42 39.59V39.5C25.3668 39.4955 25.3132 39.4955 25.26 39.5C24.52 39.5 23.78 39.5 23.04 39.5C22.59 39.5 22.53 39.5 22.56 39.03C22.75 36.43 23.02 33.84 23.42 31.26C23.4403 31.0748 23.5119 30.899 23.6267 30.7524C23.7416 30.6057 23.8951 30.4941 24.07 30.43C24.147 30.3878 24.2337 30.3667 24.3215 30.3687C24.4092 30.3707 24.4949 30.3957 24.5699 30.4414C24.6449 30.487 24.7066 30.5515 24.7487 30.6285C24.7909 30.7055 24.812 30.7922 24.81 30.88C25.08 33.13 25.35 35.38 25.59 37.63C25.69 38.63 25.72 39.63 25.78 40.63C25.785 40.7099 25.785 40.7901 25.78 40.87C25.15 40.87 24.55 40.8 23.94 40.75C23.6917 40.7354 23.4446 40.7053 23.2 40.66C23.0584 40.6357 22.9227 40.5848 22.8 40.51C22.62 40.34 22.47 40.18 22.53 40ZM24.28 43.1C24.46 51.33 24.57 59.56 24.06 67.78C23.89 59.52 24 51.3 24.28 43.07V43.1Z" fill="white" />
    </g>
    <defs>
        <clipPath id="clip0_8_122">
            <rect width="153.38" height="73.67" fill="white" />
        </clipPath>
    </defs>
</svg>